<svg width="631" height="631" viewBox="0 0 631 631" fill="none" xmlns="http://www.w3.org/2000/svg">
<g clip-path="url(#clip0_708_66832)">
<g clip-path="url(#clip1_708_66832)">
<path d="M546.882 429.496C546.882 447.871 531.847 462.906 513.471 462.906H116.247C97.8708 462.906 82.8359 447.871 82.8359 429.496V199.879C82.8359 181.504 97.8708 166.469 116.247 166.469H513.472C531.847 166.469 546.882 181.504 546.882 199.879L546.882 429.496Z" fill="#D2F5FF" fill-opacity="0.3"/>
<path d="M546.253 432.722C546.253 439.319 540.856 444.716 534.259 444.716H289.978C283.381 444.716 277.984 439.319 277.984 432.722V403.392C277.984 396.795 283.381 391.398 289.978 391.398H534.259C540.855 391.398 546.253 396.795 546.253 403.392V432.722Z" fill="#DFF9FF"/>
<path d="M312.55 533.492C369.266 533.492 415.244 520.008 415.244 503.375C415.244 486.742 369.266 473.258 312.55 473.258C255.833 473.258 209.855 486.742 209.855 503.375C209.855 520.008 255.833 533.492 312.55 533.492Z" fill="#DFF9FF"/>
<path d="M438.54 526.988C523.971 526.988 593.228 506.678 593.228 481.623C593.228 456.569 523.971 436.258 438.54 436.258C353.108 436.258 283.852 456.569 283.852 481.623C283.852 506.678 353.108 526.988 438.54 526.988Z" fill="#DFF9FF"/>
<path d="M293.977 499.39C448.532 499.39 573.824 477.749 573.824 451.054C573.824 424.359 448.532 402.719 293.977 402.719C139.421 402.719 14.1289 424.359 14.1289 451.054C14.1289 477.749 139.421 499.39 293.977 499.39Z" fill="#DFF9FF"/>
<path d="M318.116 480.836C350.58 480.836 376.897 473.118 376.897 463.598C376.897 454.077 350.58 446.359 318.116 446.359C285.653 446.359 259.336 454.077 259.336 463.598C259.336 473.118 285.653 480.836 318.116 480.836Z" fill="#CDF5FE"/>
<path d="M417.914 475.209C439.79 475.209 457.523 470.008 457.523 463.593C457.523 457.177 439.79 451.977 417.914 451.977C396.038 451.977 378.305 457.177 378.305 463.593C378.305 470.008 396.038 475.209 417.914 475.209Z" fill="#CDF5FE"/>
<path d="M508.826 477.507C535.043 477.507 556.296 471.274 556.296 463.586C556.296 455.897 535.043 449.664 508.826 449.664C482.609 449.664 461.355 455.897 461.355 463.586C461.355 471.274 482.609 477.507 508.826 477.507Z" fill="#CDF5FE"/>
<path d="M262.903 516.859C262.691 516.859 262.486 516.78 262.329 516.637C262.172 516.494 262.073 516.299 262.052 516.088C262.031 515.876 262.089 515.665 262.215 515.494C262.341 515.323 262.525 515.205 262.733 515.163C263.196 515.069 274.14 512.861 280.906 512.861C281.134 512.861 281.352 512.951 281.512 513.112C281.673 513.273 281.763 513.491 281.763 513.718C281.763 513.945 281.673 514.163 281.512 514.324C281.352 514.484 281.134 514.575 280.906 514.575C274.313 514.575 263.186 516.819 263.074 516.842C263.017 516.854 262.959 516.859 262.903 516.859ZM284.979 519.144C284.766 519.143 284.562 519.064 284.405 518.922C284.248 518.779 284.149 518.583 284.128 518.372C284.107 518.161 284.165 517.95 284.29 517.779C284.416 517.608 284.601 517.49 284.809 517.447C285.272 517.353 296.216 515.145 302.982 515.145C303.209 515.145 303.427 515.236 303.588 515.396C303.749 515.557 303.839 515.775 303.839 516.002C303.839 516.23 303.749 516.447 303.588 516.608C303.427 516.769 303.209 516.859 302.982 516.859C296.389 516.859 285.262 519.104 285.15 519.127C285.092 519.138 285.035 519.144 284.979 519.144ZM313.233 520.286C313.021 520.285 312.817 520.206 312.66 520.063C312.504 519.921 312.405 519.725 312.384 519.514C312.363 519.303 312.421 519.092 312.546 518.921C312.672 518.751 312.856 518.632 313.063 518.59C313.526 518.496 324.471 516.288 331.237 516.288C331.464 516.288 331.682 516.378 331.843 516.539C332.003 516.7 332.094 516.918 332.094 517.145C332.094 517.372 332.003 517.59 331.843 517.751C331.682 517.911 331.464 518.002 331.237 518.002C324.644 518.002 313.516 520.246 313.405 520.269C313.348 520.28 313.291 520.286 313.233 520.286ZM345.115 522.571C344.918 522.57 344.727 522.502 344.574 522.377C344.421 522.252 344.316 522.078 344.277 521.884C344.232 521.662 344.277 521.43 344.402 521.241C344.528 521.051 344.723 520.919 344.946 520.874C345.409 520.78 356.353 518.572 363.119 518.572C363.346 518.572 363.564 518.662 363.725 518.823C363.886 518.984 363.976 519.202 363.976 519.429C363.976 519.656 363.886 519.874 363.725 520.035C363.564 520.196 363.346 520.286 363.119 520.286C356.526 520.286 345.399 522.531 345.287 522.553C345.229 522.565 345.172 522.571 345.115 522.571ZM284.979 502.54C284.766 502.54 284.562 502.461 284.404 502.318C284.247 502.176 284.148 501.98 284.127 501.768C284.106 501.557 284.164 501.346 284.29 501.175C284.416 501.004 284.601 500.886 284.809 500.844C285.272 500.75 296.216 498.542 302.982 498.542C303.209 498.542 303.427 498.632 303.588 498.793C303.749 498.954 303.839 499.171 303.839 499.399C303.839 499.626 303.749 499.844 303.588 500.004C303.427 500.165 303.209 500.255 302.982 500.255C296.389 500.255 285.262 502.5 285.15 502.523C285.094 502.534 285.036 502.54 284.979 502.54ZM233.136 493.153C232.924 493.152 232.719 493.073 232.562 492.931C232.405 492.788 232.307 492.592 232.286 492.381C232.265 492.17 232.323 491.959 232.448 491.788C232.574 491.617 232.758 491.499 232.966 491.457C233.429 491.363 244.373 489.155 251.139 489.155C251.366 489.155 251.584 489.245 251.745 489.406C251.906 489.566 251.996 489.784 251.996 490.011C251.996 490.239 251.906 490.457 251.745 490.617C251.584 490.778 251.366 490.868 251.139 490.868C244.546 490.868 233.419 493.113 233.307 493.136C233.25 493.147 233.192 493.153 233.136 493.153ZM207.342 483.625C207.13 483.624 206.925 483.545 206.768 483.402C206.611 483.26 206.513 483.064 206.492 482.853C206.471 482.642 206.529 482.431 206.654 482.26C206.78 482.089 206.964 481.971 207.172 481.928C207.635 481.834 218.579 479.627 225.345 479.627C225.572 479.627 225.79 479.717 225.951 479.877C226.112 480.038 226.202 480.256 226.202 480.483C226.202 480.71 226.112 480.928 225.951 481.089C225.79 481.25 225.572 481.34 225.345 481.34C218.752 481.34 207.625 483.584 207.513 483.607C207.456 483.619 207.398 483.625 207.342 483.625ZM186.493 479.922C186.281 479.921 186.076 479.842 185.919 479.699C185.762 479.557 185.664 479.361 185.643 479.15C185.622 478.939 185.68 478.728 185.805 478.557C185.931 478.386 186.115 478.268 186.323 478.225C186.786 478.132 197.73 475.924 204.496 475.924C204.723 475.924 204.941 476.014 205.102 476.175C205.263 476.335 205.353 476.553 205.353 476.781C205.353 477.008 205.263 477.226 205.102 477.386C204.941 477.547 204.723 477.637 204.496 477.637C197.903 477.637 186.776 479.882 186.664 479.904C186.607 479.916 186.549 479.922 186.493 479.922ZM316.936 505.375C316.724 505.374 316.52 505.295 316.363 505.153C316.205 505.01 316.107 504.814 316.086 504.603C316.064 504.392 316.122 504.18 316.248 504.01C316.374 503.839 316.559 503.721 316.767 503.678C317.229 503.584 328.174 501.377 334.94 501.377C335.167 501.377 335.385 501.467 335.546 501.628C335.706 501.788 335.797 502.006 335.797 502.233C335.797 502.461 335.706 502.679 335.546 502.839C335.385 503 335.167 503.09 334.94 503.09C328.347 503.09 317.219 505.335 317.108 505.357C317.05 505.369 316.993 505.375 316.936 505.375ZM108.185 480.704C107.973 480.703 107.769 480.624 107.612 480.481C107.455 480.339 107.356 480.143 107.335 479.932C107.314 479.721 107.372 479.51 107.498 479.339C107.623 479.168 107.808 479.05 108.016 479.007C108.478 478.913 119.423 476.706 126.189 476.706C126.416 476.706 126.634 476.796 126.794 476.957C126.955 477.117 127.045 477.335 127.045 477.563C127.045 477.79 126.955 478.008 126.794 478.168C126.634 478.329 126.416 478.419 126.189 478.419C119.596 478.419 108.468 480.664 108.357 480.686C108.299 480.698 108.242 480.704 108.185 480.704ZM130.261 482.988C130.049 482.988 129.845 482.908 129.688 482.766C129.531 482.623 129.432 482.428 129.411 482.217C129.39 482.006 129.448 481.794 129.573 481.624C129.699 481.453 129.884 481.335 130.091 481.292C130.554 481.198 141.498 478.99 148.264 478.99C148.492 478.99 148.71 479.081 148.87 479.241C149.031 479.402 149.121 479.62 149.121 479.847C149.121 480.074 149.031 480.292 148.87 480.453C148.71 480.613 148.492 480.704 148.264 480.704C141.671 480.704 130.544 482.948 130.432 482.971C130.375 482.983 130.317 482.988 130.261 482.988ZM158.515 484.131C158.303 484.13 158.099 484.051 157.942 483.908C157.785 483.766 157.687 483.57 157.666 483.359C157.644 483.148 157.702 482.937 157.828 482.766C157.954 482.595 158.138 482.477 158.346 482.434C158.808 482.34 169.753 480.133 176.519 480.133C176.746 480.133 176.964 480.223 177.125 480.383C177.285 480.544 177.376 480.762 177.376 480.989C177.376 481.216 177.285 481.434 177.125 481.595C176.964 481.756 176.746 481.846 176.519 481.846C169.926 481.846 158.799 484.091 158.687 484.113C158.629 484.125 158.572 484.131 158.515 484.131ZM230.214 512.109C230.002 512.108 229.797 512.029 229.64 511.886C229.483 511.744 229.384 511.548 229.363 511.337C229.342 511.126 229.4 510.914 229.526 510.743C229.652 510.573 229.836 510.455 230.044 510.412C230.507 510.318 241.451 508.11 248.217 508.11C248.445 508.11 248.663 508.2 248.823 508.361C248.984 508.522 249.074 508.74 249.074 508.967C249.074 509.194 248.984 509.412 248.823 509.573C248.663 509.734 248.445 509.824 248.217 509.824C241.624 509.824 230.497 512.069 230.385 512.091C230.328 512.103 230.27 512.109 230.214 512.109ZM79.026 474.115C78.814 474.115 78.6098 474.035 78.4528 473.893C78.2958 473.75 78.1972 473.555 78.1761 473.344C78.155 473.133 78.2129 472.921 78.3385 472.75C78.4642 472.58 78.6487 472.461 78.8564 472.419C79.3189 472.325 90.2635 470.117 97.0296 470.117C97.2568 470.117 97.4747 470.207 97.6353 470.368C97.796 470.529 97.8862 470.747 97.8862 470.974C97.8862 471.201 97.796 471.419 97.6353 471.58C97.4747 471.74 97.2568 471.83 97.0296 471.83C90.4366 471.83 79.3092 474.075 79.1974 474.098C79.1399 474.11 79.0824 474.115 79.026 474.115ZM341.685 492.011C341.473 492.01 341.269 491.931 341.112 491.788C340.955 491.646 340.856 491.45 340.835 491.239C340.814 491.028 340.872 490.817 340.997 490.646C341.123 490.475 341.307 490.357 341.515 490.314C341.978 490.22 352.922 488.013 359.688 488.013C359.916 488.013 360.133 488.103 360.294 488.264C360.455 488.424 360.545 488.642 360.545 488.869C360.545 489.097 360.455 489.314 360.294 489.475C360.133 489.636 359.916 489.726 359.688 489.726C353.095 489.726 341.968 491.971 341.856 491.993C341.799 492.005 341.741 492.011 341.685 492.011ZM399.112 514.393C398.915 514.393 398.723 514.324 398.571 514.199C398.418 514.074 398.313 513.9 398.273 513.707C398.228 513.484 398.273 513.253 398.399 513.063C398.524 512.874 398.72 512.742 398.942 512.696C399.405 512.603 410.35 510.395 417.116 510.395C417.343 510.395 417.561 510.485 417.722 510.646C417.882 510.807 417.973 511.024 417.973 511.252C417.973 511.479 417.882 511.697 417.722 511.858C417.561 512.018 417.343 512.109 417.116 512.109C410.523 512.109 399.395 514.353 399.284 514.376C399.226 514.387 399.169 514.393 399.112 514.393ZM430.994 516.678C430.797 516.677 430.606 516.609 430.453 516.484C430.3 516.359 430.195 516.185 430.156 515.991C430.111 515.769 430.156 515.537 430.281 515.348C430.407 515.158 430.602 515.026 430.825 514.981C431.288 514.887 442.232 512.679 448.998 512.679C449.225 512.679 449.443 512.77 449.604 512.93C449.765 513.091 449.855 513.309 449.855 513.536C449.855 513.763 449.765 513.981 449.604 514.142C449.443 514.303 449.225 514.393 448.998 514.393C442.405 514.393 431.278 516.638 431.166 516.66C431.108 516.672 431.051 516.678 430.994 516.678ZM472.549 513.251C472.352 513.25 472.161 513.182 472.008 513.057C471.855 512.932 471.75 512.758 471.711 512.564C471.665 512.342 471.711 512.11 471.836 511.921C471.961 511.731 472.157 511.599 472.38 511.554C472.842 511.46 483.787 509.252 490.553 509.252C490.78 509.252 490.998 509.343 491.159 509.503C491.319 509.664 491.41 509.882 491.41 510.109C491.41 510.336 491.319 510.554 491.159 510.715C490.998 510.876 490.78 510.966 490.553 510.966C483.96 510.966 472.832 513.211 472.721 513.233C472.663 513.245 472.606 513.251 472.549 513.251ZM402.815 499.482C402.603 499.481 402.399 499.402 402.242 499.259C402.085 499.117 401.986 498.921 401.965 498.71C401.944 498.499 402.002 498.288 402.128 498.117C402.253 497.946 402.438 497.828 402.646 497.785C403.108 497.691 414.053 495.484 420.819 495.484C421.046 495.484 421.264 495.574 421.424 495.735C421.585 495.895 421.675 496.113 421.675 496.34C421.675 496.567 421.585 496.785 421.424 496.946C421.264 497.107 421.046 497.197 420.819 497.197C414.226 497.197 403.098 499.441 402.987 499.464C402.929 499.476 402.872 499.482 402.815 499.482ZM447.014 501.398C446.802 501.397 446.598 501.318 446.441 501.175C446.284 501.032 446.186 500.837 446.165 500.626C446.143 500.415 446.201 500.203 446.327 500.033C446.453 499.862 446.637 499.744 446.845 499.701C447.308 499.607 458.252 497.399 465.018 497.399C465.245 497.399 465.463 497.49 465.624 497.65C465.784 497.811 465.875 498.029 465.875 498.256C465.875 498.483 465.784 498.701 465.624 498.862C465.463 499.022 465.245 499.113 465.018 499.113C458.425 499.113 447.298 501.357 447.186 501.38C447.128 501.392 447.071 501.398 447.014 501.398ZM466.943 504.653C466.745 504.653 466.554 504.584 466.401 504.459C466.249 504.334 466.144 504.16 466.104 503.967C466.059 503.744 466.104 503.512 466.23 503.323C466.355 503.134 466.551 503.002 466.773 502.956C467.236 502.863 478.18 500.655 484.947 500.655C485.174 500.655 485.392 500.745 485.552 500.906C485.713 501.066 485.803 501.284 485.803 501.512C485.803 501.739 485.713 501.957 485.552 502.117C485.392 502.278 485.174 502.368 484.947 502.368C478.351 502.368 467.226 504.613 467.114 504.636C467.057 504.647 466.999 504.653 466.943 504.653ZM498.825 506.937C498.628 506.937 498.437 506.868 498.284 506.743C498.131 506.618 498.026 506.444 497.987 506.251C497.942 506.028 497.987 505.797 498.112 505.607C498.238 505.418 498.433 505.286 498.656 505.241C499.118 505.147 510.063 502.939 516.829 502.939C517.056 502.939 517.274 503.029 517.435 503.19C517.595 503.351 517.686 503.569 517.686 503.796C517.686 504.023 517.595 504.241 517.435 504.402C517.274 504.562 517.056 504.653 516.829 504.653C510.236 504.653 499.109 506.897 498.997 506.92C498.939 506.932 498.882 506.937 498.825 506.937ZM540.38 503.511C540.168 503.51 539.964 503.431 539.807 503.288C539.65 503.145 539.551 502.95 539.53 502.739C539.509 502.528 539.567 502.317 539.693 502.146C539.818 501.975 540.003 501.857 540.211 501.814C540.673 501.72 551.618 499.512 558.384 499.512C558.611 499.512 558.829 499.603 558.99 499.763C559.15 499.924 559.24 500.142 559.24 500.369C559.24 500.596 559.15 500.814 558.99 500.975C558.829 501.135 558.611 501.226 558.384 501.226C551.791 501.226 540.663 503.47 540.552 503.493C540.494 503.505 540.437 503.511 540.38 503.511ZM470.646 489.741C470.434 489.741 470.23 489.661 470.073 489.519C469.916 489.376 469.817 489.181 469.796 488.97C469.775 488.759 469.833 488.547 469.959 488.377C470.084 488.206 470.269 488.088 470.476 488.045C470.939 487.951 481.884 485.743 488.65 485.743C488.877 485.743 489.095 485.834 489.255 485.994C489.416 486.155 489.506 486.373 489.506 486.6C489.506 486.827 489.416 487.045 489.255 487.206C489.095 487.366 488.877 487.457 488.65 487.457C482.057 487.457 470.929 489.701 470.818 489.724C470.76 489.736 470.703 489.741 470.646 489.741ZM514.845 491.657C514.633 491.657 514.429 491.577 514.272 491.435C514.115 491.292 514.017 491.097 513.996 490.886C513.974 490.675 514.032 490.463 514.158 490.293C514.284 490.122 514.468 490.004 514.676 489.961C515.138 489.867 526.083 487.659 532.849 487.659C533.076 487.659 533.294 487.75 533.455 487.91C533.615 488.071 533.706 488.289 533.706 488.516C533.706 488.743 533.615 488.961 533.455 489.122C533.294 489.282 533.076 489.373 532.849 489.373C526.256 489.373 515.129 491.617 515.017 491.64C514.959 491.652 514.902 491.657 514.845 491.657Z" fill="#B3F0FE"/>
<path d="M141.713 324.168C194.807 324.168 237.848 281.127 237.848 228.033C237.848 174.94 194.807 131.898 141.713 131.898C88.6192 131.898 45.5781 174.94 45.5781 228.033C45.5781 281.127 88.6192 324.168 141.713 324.168Z" fill="#D2F5FF" fill-opacity="0.3"/>
<path d="M398.688 166.465H428.455V390.48H398.688V166.465ZM449.018 166.465H478.786V390.48H449.018V166.465ZM126.474 133.103L110.544 137.066C102.353 140.127 103.853 139.309 96.707 143.067V390.48H126.474V133.103ZM348.358 166.465H378.125V390.48H348.358V166.465ZM247.698 166.465H277.465V390.48H247.698V166.465ZM529.116 170.385C524.441 167.888 519.116 166.465 513.473 166.465H499.349V390.48H529.116V170.385ZM298.028 166.465H327.795V390.48H298.028V166.465ZM147.037 132.148V390.48H176.804V138.541C165.196 134.166 152.821 132.646 147.037 132.148ZM197.367 149.745V390.48H227.135V166.465H215.546C212.66 161.506 202.239 153.375 197.367 149.745Z" fill="#B1E6F2" fill-opacity="0.5"/>
<path d="M545.965 399.243H298.075C294.053 399.243 290.793 395.983 290.793 391.962C290.793 387.94 294.053 384.68 298.075 384.68H545.965C549.987 384.68 553.247 387.94 553.247 391.962C553.247 395.983 549.987 399.243 545.965 399.243Z" fill="white"/>
<path d="M155.801 215.18C157.282 215.18 159.092 216.061 160.402 217.371C161.537 218.506 161.918 221.05 161.712 222.11C160.95 226.04 159.999 226.539 158.676 228.896L155.801 220.999V215.18ZM130.547 230.925C129.69 231.083 128.973 231.65 128.296 232.198C126.692 233.496 125.054 234.831 123.988 236.598C122.704 238.725 122.368 241.272 122.059 243.737C121.82 245.649 121.591 247.658 122.302 249.449C122.961 251.109 124.381 252.446 124.718 254.2C124.982 255.574 124.534 256.984 124.581 258.382C124.619 259.478 124.959 260.538 125.297 261.581L126.78 266.166C128.09 263.334 129.426 260.461 131.469 258.103C133.003 256.332 135.039 254.6 135.06 252.257C135.08 250.069 133.279 248.252 132.982 246.084C132.66 243.734 134.154 241.399 133.762 239.06C133.488 237.43 132.344 235.685 133.223 234.285L130.547 230.925Z" fill="#21123B"/>
<path d="M169.103 321.911C168.01 309.235 160.637 297.262 159.848 284.641C159.404 277.527 162.157 256.609 162.266 255.955C162.658 253.583 161.858 251.72 159.411 250.803C156.964 249.885 149.436 246.927 145.62 247.001C145.62 247.001 133.741 247.669 127.708 255.192C127.708 255.192 126.438 255.66 129.234 259.203C129.234 259.203 131.163 264.975 131.566 266.48C132.411 269.614 133.406 273.741 134.508 279.12C137.476 293.595 124.057 306.194 123.465 322.01C122.973 335.175 123.051 357.111 123.051 357.111L166.825 356C166.825 356 170.147 334.029 169.103 321.911Z" fill="#227C9D"/>
<path d="M142.001 245.647C142.001 245.647 136.819 247.199 136.824 249.443C136.828 251.224 141.032 257.272 145.59 259.352C149.426 261.102 152.039 256.343 152.472 255.285C153.279 253.313 156.667 246.263 148.621 245.203C143.02 244.466 142.001 245.647 142.001 245.647Z" fill="#FEF9EF"/>
<path d="M155.707 288.381C155.707 288.381 158.531 289.622 157.848 291.507C157.164 293.393 154.729 290.98 154.7 290.543C154.672 290.107 155.263 287.691 155.707 288.381Z" fill="#FFA86E"/>
<path opacity="0.1" d="M155.491 305.314C155.491 305.314 155.893 307.206 155.072 307.456C154.251 307.705 135.868 309.419 135.082 307.491C134.297 305.564 135.475 285.36 135.475 285.217C135.475 285.075 135.207 278.507 137.403 278.328C140.146 278.105 154.762 280.327 154.703 280.363C154.643 280.399 155.491 305.314 155.491 305.314Z" fill="black"/>
<path d="M156.496 290.053C156.496 290.053 159.095 291.014 158.412 292.9C157.728 294.785 155.518 292.652 155.489 292.215C155.46 291.778 156.052 289.363 156.496 290.053Z" fill="#FFA86E"/>
<path d="M156.496 291.631C156.496 291.631 159.095 292.592 158.412 294.478C157.728 296.364 155.518 294.23 155.489 293.793C155.46 293.357 156.052 290.941 156.496 291.631Z" fill="#FFA86E"/>
<path d="M156.323 293.499C156.323 293.499 159.012 294.128 158.328 296.013C157.645 297.899 155.351 298.177 154.699 298.191C154.262 298.201 155.879 292.808 156.323 293.499Z" fill="#FFA86E"/>
<path d="M156.078 305.45C156.078 306.069 155.571 306.575 154.952 306.575H137.809C137.19 306.575 136.684 306.069 136.684 305.45V278.516C136.684 277.897 137.19 277.391 137.809 277.391H154.952C155.571 277.391 156.078 277.897 156.078 278.516V305.45Z" fill="#FFCB77"/>
<path d="M129.41 253.355C129.41 253.355 114.483 266.229 109.533 288.818C107.992 295.848 116.117 293.634 118.288 288.435C119.176 286.311 122.156 281.276 123.076 279.634C127.677 271.418 132.437 265.807 133.473 262.405C134.508 259.004 132.408 251.088 129.41 253.355Z" fill="#227C9D"/>
<path opacity="0.1" d="M129.379 302.178L131.215 297.993L148.617 296.227L156.059 296.414L156.077 300.671C156.077 300.671 151.91 301.126 149.5 300.644C147.091 300.162 129.379 302.178 129.379 302.178Z" fill="black"/>
<path d="M110.391 292.508C110.391 292.508 114.013 289.071 116.923 288.828C119.812 288.586 142.527 293.343 148.708 292.371C148.708 292.371 150.345 293.121 150.569 295.03C150.788 296.891 149.002 297.479 146.651 298.244C144.299 299.01 107.325 299.765 110.391 292.508ZM176.134 286.553C176.134 286.553 179.534 284.453 182.452 284.567C185.37 284.681 199.634 291.348 208.397 292.11C208.397 292.11 209.383 292.443 209.691 294.291C209.999 296.139 210.5 297.541 208.027 297.545C203.997 297.552 171.497 292.922 176.134 286.553Z" fill="#FFA86E"/>
<path d="M157.998 250.259C157.998 250.259 162.569 251.177 165.67 257.26C168.873 263.546 179.777 281.913 181.934 284.389C184.09 286.865 180.107 291.472 175.68 288.993C169.87 285.739 159.65 266.577 159.011 261.545C158.372 256.513 156.012 249.032 157.998 250.259Z" fill="#227C9D"/>
<path d="M207.545 293.437C207.545 293.437 206.805 297.282 208.136 298.095C209.467 298.909 216.72 298.874 217.62 298.243C218.729 297.467 218.877 293.492 218.138 292.383C217.398 291.274 208.95 290.996 207.545 293.437Z" fill="#FFA86E"/>
<path d="M192.814 295.323L194.619 288.575C194.619 288.575 194.758 287.928 194.199 287.769C193.641 287.61 182.195 283.934 180.757 282.805C179.32 281.677 171.82 285.429 171.82 285.429C171.82 285.429 174.785 289.708 177.475 291.188C178.927 291.986 192.498 296.505 192.814 295.323Z" fill="#227C9D"/>
<path d="M142.466 247.412C142.466 247.412 140.205 247.486 139.983 249.088C139.875 249.871 143.311 256.877 147.131 256.606C148.945 256.477 154.166 247.919 148.98 247.13C144.812 246.496 142.466 247.412 142.466 247.412Z" fill="#FFA86E"/>
<path d="M120.64 297.891C120.64 297.891 122.268 291.503 123.556 289.837C123.556 289.837 124.322 289.51 123.269 289.147C122.216 288.784 118.2 288.374 116.875 287.884C115.55 287.394 109.532 289.126 109.532 289.126C109.532 289.126 108.527 292.33 111.112 295.894C112.409 297.684 120.273 299.246 120.64 297.891Z" fill="#227C9D"/>
<path d="M211.284 301.29C211.068 301.219 210.889 301.066 210.786 300.864C210.682 300.662 210.663 300.427 210.732 300.211L213.589 291.381C213.66 291.166 213.813 290.987 214.015 290.883C214.217 290.78 214.452 290.761 214.668 290.83L228.258 295.227C228.473 295.297 228.652 295.45 228.756 295.652C228.859 295.855 228.878 296.089 228.809 296.306L225.952 305.135C225.882 305.351 225.728 305.53 225.526 305.633C225.324 305.737 225.089 305.756 224.873 305.687L211.284 301.29Z" fill="#17C3B2"/>
<path d="M215.868 297.146C215.652 297.216 215.417 297.197 215.214 297.094C215.012 296.991 214.859 296.812 214.788 296.597L211.913 287.773C211.843 287.557 211.862 287.322 211.964 287.12C212.067 286.918 212.246 286.764 212.462 286.693L226.042 282.268C226.258 282.198 226.493 282.217 226.695 282.32C226.898 282.423 227.051 282.602 227.122 282.817L229.997 291.641C230.067 291.857 230.048 292.092 229.945 292.294C229.843 292.496 229.664 292.65 229.448 292.721L215.868 297.146Z" fill="#17C3B2"/>
<path d="M223.977 289.937C224.537 288.347 223.702 286.603 222.111 286.043C220.521 285.483 218.777 286.318 218.217 287.909C217.657 289.5 218.493 291.243 220.083 291.803C221.674 292.363 223.417 291.528 223.977 289.937Z" fill="#FFCB77"/>
<path d="M145.247 294.755C145.247 294.755 142.772 292.575 145.879 292.489C148.138 292.426 152.531 292.018 155.138 290.873C156.654 290.207 157.455 290.237 157.558 290.857C158.112 294.202 159.068 297.015 155.784 298.064C153.758 298.71 148.333 298.571 145.175 298.537C142.785 298.512 144.312 296.387 145.247 294.755Z" fill="#FFA86E"/>
<path d="M145.777 292.97C145.777 292.97 146.941 291.289 147.82 290.798C148.699 290.307 149.784 289.755 150.353 289.527C150.922 289.299 153.015 289.066 153.3 288.73C153.584 288.394 153.998 289.59 153.3 290.233C152.602 290.876 151.549 290.902 151.274 291.121C150.999 291.341 150.275 292.349 149.448 292.97C148.621 293.59 145.255 293.663 145.777 292.97Z" fill="#FFA86E"/>
<path opacity="0.1" d="M141.696 246.415C141.696 246.415 138.799 246.95 138.938 249.199C139.078 251.448 142.611 255.539 144.468 256.617C146.324 257.694 147.96 256.182 147.96 256.182C147.96 256.182 144.61 255.876 142.576 252.341C140.541 248.806 141.362 248.199 142.183 247.949C143.004 247.7 147.734 247.138 149.322 247.735C150.91 248.332 151.211 249.033 150.893 250.484C150.504 252.255 150.772 252.844 151.535 250.412C152.073 248.697 151.92 246.091 148.676 245.932C145.431 245.772 141.696 246.415 141.696 246.415Z" fill="black"/>
<path d="M141.111 233.153C141.111 233.153 142.79 239.087 141.469 248.207C141.469 248.207 141.108 249.893 141.878 250.5C142.501 250.991 144.875 252.908 148.878 250.5C150.599 249.465 149.002 248.331 149.317 238.811C149.419 235.749 140.991 230.888 141.111 233.153Z" fill="#FFA86E"/>
<path d="M147.32 236.32C153.484 236.32 158.48 231.324 158.48 225.16C158.48 218.997 153.484 214 147.32 214C141.157 214 136.16 218.997 136.16 225.16C136.16 231.324 141.157 236.32 147.32 236.32Z" fill="#FFA86E"/>
<path d="M158.412 223.927C158.412 223.927 158.279 242.268 154.984 243.41C149.574 245.285 140.463 236.739 139.014 232.611C137.564 228.482 157.284 217.89 158.412 223.927Z" fill="#FFA86E"/>
<path d="M158.37 225.954C158.37 225.954 158.537 229.496 159.047 232.055C159.483 234.244 160.183 235.968 156.34 234.861C152.98 233.893 157.916 225.19 158.37 225.954Z" fill="#FFA86E"/>
<path d="M148.079 225.907C152.251 221.038 159.931 225.155 158.127 218.728C157.115 215.127 152.944 212.039 149.699 212.039C147.278 212.039 144.043 212.135 142.626 212.739C133.904 216.459 143.265 231.524 148.079 225.907Z" fill="#21123B"/>
<path d="M147.796 218.711C147.796 218.711 149.252 223.005 148.301 225.375C147.351 227.745 146.546 228.955 147.307 231.46C148.069 233.965 145.141 231.086 144.1 228.664C143.059 226.241 140.616 228.399 141.639 231.12C142.662 233.841 142.351 237.128 139.979 237.128C137.528 237.128 135.516 235.895 134.302 234.388C131.315 230.68 130.175 216.286 142.857 212.742C142.857 212.742 147.495 216.29 147.796 218.711Z" fill="#21123B"/>
<path d="M132.003 230.424C132.003 230.424 127.077 232.592 124.966 229.225C121.827 224.216 127.445 228.799 128.889 228.598C130.333 228.396 126.675 228.969 126.349 225.443C125.952 221.151 127.13 225.791 129.976 226.944C132.114 227.811 133.978 229.74 133.968 233.266C133.958 236.793 131.47 230.889 132.003 230.424Z" fill="#FFCB77"/>
<path d="M135.819 235.838C135.728 236.111 135.56 236.353 135.334 236.533C135.109 236.712 134.836 236.823 134.549 236.851C134.262 236.879 133.972 236.823 133.716 236.691C133.46 236.558 133.248 236.353 133.106 236.103C133.041 235.99 131.526 233.315 130.63 231.335C130.289 230.584 130.623 229.701 131.373 229.36C131.551 229.279 131.744 229.234 131.94 229.227C132.136 229.221 132.331 229.253 132.514 229.322C132.698 229.391 132.866 229.496 133.009 229.63C133.152 229.763 133.267 229.924 133.348 230.103C134.189 231.959 135.686 234.603 135.702 234.63C135.805 234.812 135.869 235.013 135.889 235.221C135.909 235.429 135.886 235.639 135.819 235.838Z" fill="#FFCB77"/>
<path opacity="0.1" d="M149.289 242.623C149.289 242.623 145.872 240.65 144.672 239.586C143.473 238.522 144.785 241.892 146.177 243.677C147.569 245.462 149.494 246.414 149.494 246.414L149.289 242.623ZM138.294 252.648C138.294 252.648 139.113 254.802 141.326 257.8C143.539 260.799 146.431 261.727 147.787 261.334C149.144 260.942 151.6 258.293 152.139 255.958C152.677 253.624 150.46 259.187 147.43 258.943C142.112 258.514 138.117 251.064 138.294 252.648ZM131.512 266.278C131.512 266.278 133.518 264.556 134.134 260.406C134.75 256.257 135.842 263.86 135.684 266.671C135.526 269.482 133.208 273.104 133.208 273.104L131.512 266.278ZM160.923 267.174C160.923 267.174 161.596 261.226 161.777 259.727C161.958 258.229 163.458 261.477 163.779 264.511C164.1 267.545 163.264 272.032 163.264 272.032L160.923 267.174ZM118.368 288.248C118.368 288.248 117.455 288.811 116.036 289.48C114.618 290.149 114.909 288.302 116.584 286.482C118.258 284.661 120.285 284.541 120.285 284.541L118.368 288.248ZM181.202 283.09C181.064 283.03 180.948 282.942 180.843 282.844L180.759 282.806L179.655 281.121C179.655 281.121 177.718 282.359 178.092 284.206C178.467 286.053 183.826 284.206 183.826 284.206L183.278 283.956C182.563 283.731 181.888 283.388 181.202 283.09ZM190.632 295.316C190.632 295.316 192.146 295.534 192.308 295.519C192.471 295.505 194.503 287.833 194.503 287.833C194.503 287.833 192.401 287.195 191.958 287.05C191.516 286.904 190.632 295.316 190.632 295.316Z" fill="black"/>
<path d="M192.643 296.731C192.513 296.731 192.385 296.701 192.268 296.645C192.151 296.588 192.048 296.505 191.968 296.403C191.888 296.301 191.832 296.182 191.804 296.055C191.777 295.928 191.779 295.796 191.81 295.67L193.801 287.536C193.828 287.427 193.876 287.324 193.942 287.233C194.009 287.142 194.092 287.065 194.189 287.007C194.285 286.949 194.392 286.91 194.503 286.893C194.614 286.876 194.727 286.881 194.837 286.908C194.946 286.934 195.049 286.982 195.14 287.049C195.23 287.115 195.307 287.199 195.365 287.295C195.424 287.391 195.463 287.498 195.48 287.609C195.497 287.721 195.492 287.834 195.465 287.943L193.474 296.077C193.428 296.264 193.322 296.429 193.171 296.548C193.02 296.666 192.834 296.73 192.643 296.731Z" fill="#FEF9EF"/>
<path opacity="0.1" d="M122.585 288.981L120.783 288.656C120.783 288.656 117.962 291.89 116.766 294.835C115.571 297.78 115.637 297.938 115.637 297.938C115.637 297.938 119.821 298.975 120.284 297.994C120.747 297.012 121.539 292.711 121.539 292.711C121.539 292.711 122.799 289.052 122.585 288.981Z" fill="black"/>
<path d="M120.463 299.656C120.336 299.656 120.211 299.628 120.097 299.574C119.983 299.52 119.882 299.441 119.801 299.344C119.721 299.246 119.663 299.132 119.632 299.009C119.601 298.886 119.597 298.758 119.621 298.634C119.682 298.328 121.111 291.099 122.759 288.29C122.874 288.094 123.063 287.952 123.283 287.895C123.502 287.838 123.736 287.87 123.932 287.985C124.128 288.1 124.27 288.288 124.327 288.508C124.384 288.728 124.352 288.962 124.237 289.158C122.736 291.715 121.317 298.891 121.303 298.964C121.265 299.159 121.16 299.334 121.007 299.46C120.854 299.586 120.661 299.655 120.463 299.656Z" fill="#FEF9EF"/>
<path d="M221.926 300.409C223.119 299.217 223.119 297.283 221.926 296.091C220.734 294.899 218.801 294.899 217.608 296.091C216.416 297.283 216.416 299.217 217.608 300.409C218.801 301.601 220.734 301.601 221.926 300.409Z" fill="#FFCB77"/>
<path d="M214.233 300.398C214.166 300.398 214.1 300.382 214.04 300.352C213.98 300.321 213.928 300.277 213.888 300.223C213.848 300.169 213.822 300.106 213.811 300.04C213.799 299.974 213.804 299.906 213.824 299.842L215.892 293.203C215.926 293.094 216.001 293.004 216.102 292.951C216.202 292.898 216.32 292.887 216.428 292.921C216.537 292.955 216.627 293.03 216.68 293.131C216.733 293.231 216.743 293.349 216.71 293.457L214.642 300.096C214.615 300.184 214.561 300.26 214.487 300.314C214.413 300.368 214.325 300.397 214.233 300.398ZM224.148 302.468C224.08 302.468 224.014 302.453 223.954 302.422C223.894 302.392 223.842 302.348 223.802 302.294C223.763 302.24 223.736 302.177 223.725 302.111C223.714 302.045 223.719 301.977 223.739 301.912L225.25 297.06C225.284 296.951 225.359 296.861 225.46 296.808C225.56 296.755 225.678 296.744 225.786 296.778C225.894 296.812 225.985 296.887 226.038 296.988C226.091 297.088 226.101 297.206 226.068 297.314L224.556 302.167C224.529 302.254 224.475 302.331 224.401 302.385C224.328 302.439 224.239 302.468 224.148 302.468ZM226.426 291.398C226.338 291.398 226.252 291.371 226.18 291.32C226.108 291.269 226.053 291.198 226.023 291.115L223.752 284.824C223.716 284.717 223.723 284.601 223.772 284.5C223.82 284.399 223.907 284.321 224.012 284.283C224.118 284.245 224.234 284.25 224.336 284.297C224.438 284.343 224.517 284.428 224.558 284.533L226.829 290.824C226.852 290.889 226.859 290.958 226.85 291.026C226.841 291.094 226.816 291.159 226.776 291.216C226.737 291.272 226.684 291.318 226.623 291.35C226.562 291.381 226.495 291.398 226.426 291.398Z" fill="#FFCB77"/>
<path opacity="0.1" d="M225.006 294.17L215.357 291.048C215.357 291.048 214.124 291.708 213.749 292.886C213.375 294.064 212.32 295.302 212.32 295.302C212.32 295.302 212.866 291.52 213.348 290.784C213.83 290.048 216.154 289.941 216.719 289.352C217.283 288.763 218.94 287.813 218.596 288.911C218.252 290.008 217.283 290.397 217.524 290.611C217.765 290.825 225.006 294.17 225.006 294.17Z" fill="black"/>
<path d="M207.543 293.434C207.543 293.434 208.504 290.698 210.131 290.18C211.758 289.662 212.867 288.701 214.05 288.553C215.234 288.405 217.156 288.331 217.97 287.961C218.783 287.592 218.783 288.939 217.6 289.707C216.417 290.476 214.568 289.747 213.977 290.666C213.385 291.585 208.357 297.353 207.543 293.434Z" fill="#FFA86E"/>
<path d="M52.0859 329.476H292.19V464.448H52.0859V329.476ZM313.229 253.062C313.229 253.062 313.48 243.953 324.854 242.582C336.228 241.211 349.079 242.211 350.507 246.494C351.934 250.778 362.192 275.336 363.56 290.042C364.927 304.749 347.651 309.03 336.514 308.103C325.377 307.176 312.218 277.335 313.229 253.062Z" fill="#FFCB77"/>
<path d="M351.761 444.914C351.761 444.914 352.297 448.662 350.797 451.768C349.298 454.873 363.112 454.016 363.112 454.016C363.112 454.016 362.898 449.947 363.112 447.912C363.326 445.878 353.796 445.021 351.761 444.914Z" fill="#FFA86E"/>
<path opacity="0.1" d="M313.887 250.421C313.887 250.421 315.457 246.066 321.668 244.567C327.879 243.068 334.497 244.258 337.47 245.733C340.444 247.209 346.703 247.998 349.582 253.277C352.461 258.556 352.495 267.769 351.717 268.554C350.938 269.34 310.665 254.249 313.887 250.421Z" fill="black"/>
<path d="M366.431 462.924C366.431 462.924 368.145 455.087 366.431 452.731C364.718 450.375 359.892 451.951 356.021 451.553C352.149 451.155 352.228 447.805 349.833 447.805C346.615 447.805 341.755 451.984 337.411 453.052C330.879 454.658 327.773 455.985 327.773 462.261C327.773 462.261 331.414 462.904 338.482 463.439C345.549 463.974 366.431 462.924 366.431 462.924Z" fill="#227C9D"/>
<path d="M366.431 465.072H326.81C325.627 465.072 324.668 464.114 324.668 462.931C324.668 461.748 325.627 460.789 326.81 460.789H366.431C367.614 460.789 368.573 461.748 368.573 462.931C368.573 464.114 367.614 465.072 366.431 465.072Z" fill="#00647F"/>
<path opacity="0.1" d="M351.762 444.91L351.802 447.802L363.018 450.457L363.116 447.125C363.116 447.125 354.452 443.481 351.762 444.91Z" fill="black"/>
<path d="M303.992 444.914C303.992 444.914 304.527 448.662 303.028 451.768C301.529 454.873 315.343 454.016 315.343 454.016C315.343 454.016 315.129 449.947 315.343 447.912C315.557 445.878 306.026 445.021 303.992 444.914Z" fill="#FFA86E"/>
<path d="M318.662 462.924C318.662 462.924 320.375 455.087 318.662 452.731C316.949 450.375 312.123 451.951 308.251 451.553C304.379 451.155 304.459 447.805 302.063 447.805C298.845 447.805 293.985 451.984 289.642 453.052C283.109 454.658 280.004 455.985 280.004 462.261C280.004 462.261 283.645 462.904 290.713 463.439C297.78 463.974 318.662 462.924 318.662 462.924Z" fill="#227C9D"/>
<path d="M318.662 465.072H279.04C277.857 465.072 276.898 464.114 276.898 462.931C276.898 461.748 277.857 460.789 279.04 460.789H318.662C319.845 460.789 320.803 461.748 320.803 462.931C320.803 464.114 319.845 465.072 318.662 465.072Z" fill="#00647F"/>
<path opacity="0.1" d="M304.24 445.492L303.996 448.202L315.249 450.466V447.512L304.24 445.492Z" fill="black"/>
<path d="M319.855 247.383C319.855 247.383 313.706 248.798 306.276 257.515C299.903 264.992 288.731 281.108 284.772 284.154C280.812 287.199 262.434 287.069 255.795 291.46C255.795 291.46 249.905 298.099 256.444 301.562C260.404 303.659 285.436 299.839 293.222 295.082C301.008 290.325 333.816 248.905 319.855 247.383Z" fill="#17C3B2"/>
<path opacity="0.1" d="M315.598 249.281C315.598 249.281 309.395 253.306 303.926 260.379C303.926 260.379 305.694 280.997 305.02 283.018C305.02 283.018 310.005 276.788 310.602 275.934C311.199 275.08 315.598 249.281 315.598 249.281Z" fill="black"/>
<path d="M333.63 313.41C334.635 316.307 331.916 363.646 329.632 378.813C327.348 393.98 324.808 450.288 318.663 449.517C312.518 448.745 305.771 446.995 302.915 446.303C300.059 445.612 301.647 442.663 301.647 442.663C301.647 442.663 306.449 403.044 309.131 381.088C312.812 350.965 314.29 308.775 314.29 308.775C314.29 308.775 330.883 305.496 333.63 313.41Z" fill="#FE6D73"/>
<path d="M350.684 308.108C350.684 308.108 355.903 358.044 359.044 379.953C363.116 408.366 365.779 435.816 367.416 444.277C368.701 450.918 357.538 448.432 350.684 445.491C350.684 445.491 346.328 443.901 346.548 437.208C346.721 431.969 340.242 385.557 338.912 377.24C336.582 362.676 328.688 315.544 329.436 310.516C330.184 305.488 345.397 305.349 350.684 308.108Z" fill="#FE6D73"/>
<path opacity="0.1" d="M314.25 309.82V314.252C314.25 314.252 321.265 317.48 326.405 316.944C331.546 316.409 334.558 315.051 338.513 315.891C342.468 316.73 351.252 313.472 351.252 313.472L350.814 309.334C350.814 309.334 340.327 308.898 337.756 309.334C335.186 309.77 321.366 309.14 321.366 309.14C321.366 309.14 314.624 309.013 314.25 309.82Z" fill="black"/>
<path d="M327.197 245.735C327.197 245.735 341.912 245.47 346.694 253.127C350.352 258.985 349.228 275.04 350.384 285.04C351.54 295.039 354.968 307.786 349.836 309.983C344.704 312.18 336.736 311.855 330.239 312.124C321.352 312.493 314.803 311.306 313.534 309.019C312.161 306.545 309.814 279.778 310.238 274.15C310.665 268.47 302.893 247.924 327.197 245.735Z" fill="#17C3B2"/>
<path d="M344.185 250.612C344.185 250.612 348.333 251.872 348.976 262.01C349.618 272.147 349.136 281.603 339.409 281.071C330.14 280.564 330.827 244.497 344.185 250.612Z" fill="#17C3B2"/>
<path d="M256.884 294.78C256.884 294.78 255.827 291.14 253.357 289.962C250.888 288.784 247.782 287.606 246.283 285.892C244.784 284.179 243.499 286.214 244.462 288.248C245.426 290.283 247.678 289.928 248.707 292.05C249.174 293.014 241.936 290.111 242.294 294.084C242.656 298.099 241.464 301.901 248.371 302.384C255.361 302.871 258.33 299.867 256.884 294.78Z" fill="#FFA86E"/>
<path opacity="0.1" d="M340.513 258.567C340.702 258.69 355.61 283.567 355.61 283.567C355.61 283.567 351.487 284.196 348.677 283.268C345.867 282.34 343.725 280.484 343.725 280.484C343.725 280.484 343.939 276.136 342.726 271.171C341.512 266.206 339.299 257.782 340.513 258.567Z" fill="black"/>
<path d="M245.211 291.958C245.211 291.958 241.411 291.617 239.912 291.349C238.412 291.082 233.808 290.225 233.219 290.707C232.495 291.299 233.45 291.746 234.424 292.233C235.261 292.652 240.286 294.294 242.482 294.241C244.677 294.187 246.059 292.321 245.211 291.958Z" fill="#FFA86E"/>
<path opacity="0.1" d="M335.411 246.611L333.188 246.203C333.188 246.203 330.072 248.044 327.395 252.328C324.718 256.611 322.415 270.853 322.362 273.691C322.308 276.529 323.218 284.186 325.842 290.664C328.465 297.143 332.16 303.086 337.514 305.603C342.869 308.119 350.076 307.209 352.576 304.639C352.576 304.639 352.328 295.902 351.641 293.738C350.953 291.575 338.264 282.901 335.961 281.348C333.659 279.795 331.303 268.235 331.303 266.144C331.303 264.054 331.732 253.934 331.785 253.399C331.839 252.863 335.411 246.611 335.411 246.611Z" fill="black"/>
<path d="M243.285 294.25C243.285 294.25 240.501 294.462 238.359 294.383C236.217 294.303 232.255 292.909 231.827 293.847C231.398 294.784 232.416 295.213 233.54 295.48C234.664 295.748 236.365 296.23 238.894 296.712C240.586 297.034 242.96 297.301 243.715 296.765C244.47 296.23 243.863 293.444 243.173 293.847L243.285 294.25Z" fill="#FFA86E"/>
<path d="M242.829 297.069C242.829 297.069 239.418 297.043 237.894 296.79C235.94 296.465 233.137 295.613 232.445 295.915C231.754 296.217 231.94 297.034 233.492 297.489C234.833 297.882 236.402 298.52 237.709 298.77C239.016 299.02 244.193 299.936 244.222 299.509C244.251 299.082 243.044 297.095 242.829 297.069Z" fill="#FFA86E"/>
<path d="M244.023 299.427C244.023 299.427 240.927 299.255 239.383 299.309C237.839 299.362 234.492 298.345 233.823 298.693C233.154 299.041 233.636 299.79 234.974 300.192C236.313 300.593 237.577 300.968 239.268 301.316C240.571 301.585 247.863 302.439 248.371 302.387C248.798 302.344 244.24 299.438 244.023 299.427ZM330.373 246.414C330.373 246.414 325.955 233.179 325.527 228.039C325.527 228.039 316.96 236.884 316.103 238.313C316.103 238.313 319.091 245.235 320.053 249.346C320.053 249.346 320.766 252.059 325.527 250.986C329.606 250.067 331.079 248.045 330.373 246.414Z" fill="#FFA86E"/>
<path d="M318.252 233.136C324.522 233.136 329.605 228.053 329.605 221.783C329.605 215.513 324.522 210.43 318.252 210.43C311.981 210.43 306.898 215.513 306.898 221.783C306.898 228.053 311.981 233.136 318.252 233.136Z" fill="#FFA86E"/>
<path d="M308.093 216.709C308.093 216.709 305.94 220.518 306.846 226.599C307.225 229.142 302.732 230.541 304.394 232.594C304.735 233.015 306.168 233.259 306.715 233.448C306.753 233.461 306.438 241.433 309.318 242.316C313.265 243.527 321.284 240.675 324.452 231.715C327.62 222.755 311.274 209.641 308.093 216.709Z" fill="#FFA86E"/>
<path d="M319.853 223.22C319.853 223.22 321.12 223.737 321.367 226.093C321.614 228.449 323.272 231.961 325.443 233.899C328.287 236.437 328.251 231.823 328.304 230.509C328.357 229.196 332.002 225.484 331.448 220.13C330.948 215.295 329.592 214.528 327.932 213.082C326.272 211.637 325.329 210.424 325.329 210.424C325.329 210.424 322.471 208.263 318.883 207.728C315.296 207.193 313.904 205.479 312.458 202.802C311.013 200.125 304.587 204.515 305.551 211.476C306.515 218.437 310.745 219.347 314.011 221.542C316.086 222.937 313.744 226.147 315.082 226.789C317.365 227.886 317.456 222.22 319.853 223.22Z" fill="#21123B"/>
<path opacity="0.1" d="M332.956 339.898C332.956 339.898 331.953 330.031 331.373 329.185C330.794 328.34 328.152 325.984 326.796 322.629C325.439 319.274 325.796 325.699 327.081 328.197C328.366 330.696 332.808 342.504 332.648 344.983L332.956 339.898Z" fill="black"/>
<path d="M337.839 247.478C337.839 247.478 346.253 247.691 352.579 257.954C358.905 268.217 377.802 291.606 370.591 296.711C362.911 302.15 358.418 288.716 349.832 277.43C339.73 264.152 331.018 246.052 337.839 247.478Z" fill="#17C3B2"/>
<path d="M339.014 247.383C339.014 247.383 332.473 250.243 330.979 267.055C329.484 283.868 339.815 304.214 351.997 297.039C351.997 297.039 355.184 294.683 354.542 298.003C353.899 301.323 348.224 305.606 340.192 303.143C332.161 300.68 324.298 286.866 324.856 272.731C325.415 258.595 330.083 247.435 335.995 245.733C341.906 244.032 341.011 245.756 339.014 247.383Z" fill="#FFCB77"/>
<path d="M330.979 273.769C330.979 273.769 326.29 273.621 324.949 271.908L324.968 270.696C324.968 270.696 321.667 270.055 320.997 272.437C320.997 272.437 320.608 273.56 321.912 274.453C321.912 274.453 320.73 273.187 320.623 275.382C320.514 277.601 322.068 277.952 322.068 277.952C322.068 277.952 320.643 276.837 320.81 278.475C321.024 280.576 322.738 281.095 322.738 281.095C322.738 281.095 321.057 279.767 321.399 281.834C321.908 284.913 326.35 285.025 328.199 285.047C331.804 285.088 335.378 283.613 336.694 280.835C338.3 277.443 334.325 273.16 333.189 271.768C332.054 270.376 330.836 270.645 330.836 270.645L330.979 273.769Z" fill="#FFA86E"/>
<path d="M334.839 278.964C334.839 278.964 332.162 286.012 336.553 288.909C341.061 291.884 358.077 299.509 365.787 300.362C375.211 301.404 372.878 291.795 370.883 287.529C369.273 284.089 353.727 284.352 348.679 281.568C343.632 278.784 337.005 273.659 334.839 278.964Z" fill="#17C3B2"/>
<path opacity="0.1" d="M353.809 283.011C353.809 283.011 360.286 284.114 362.751 284.557C365.215 285.001 361.502 280.369 357.54 278.957C353.578 277.545 350.609 278.469 350.609 278.469L353.809 283.011Z" fill="black"/>
<path d="M552.361 320.791C552.361 320.791 550.197 323.778 551.262 328.287L553.196 328.036C553.196 328.036 553.082 324.605 555.391 323.049C557.7 321.493 554.392 319.498 552.361 320.791ZM428.967 341.159C428.967 341.159 431.447 343.277 433.292 346.88C435.137 350.483 440.006 357.78 442.005 360.22C444.004 362.66 440.747 366.836 436.249 364.277C431.752 361.719 424.763 349.276 424.05 345.753C423.336 342.23 428.186 340.316 428.967 341.159ZM407.208 336.179C407.208 336.179 401.959 336.179 394.065 347.105C388.903 354.249 383.534 363.335 388.447 366.393C393.36 369.451 399.9 351.947 403.267 347.441C405.725 344.152 411.965 336.542 407.208 336.179Z" fill="#FFA86E"/>
<path d="M421.845 451.249C421.845 451.249 422.488 454.962 422.345 458.709H430.127C430.127 458.709 430.627 452.677 430.127 450.249C429.627 447.822 421.966 450.227 421.845 451.249ZM407.507 335.664C407.507 335.664 402.793 336.557 397.73 341.59C397.73 341.59 394.98 344.147 395.698 344.957C396.415 345.767 399.414 351.55 400.913 350.586C402.412 349.622 409.497 337.093 407.507 336.183V335.664Z" fill="#FEF9EF"/>
<path d="M432.164 464.671C432.164 464.671 432.715 463.332 432.541 458.71C432.374 454.253 429.062 457.275 427.334 457.068C424.21 456.693 422.98 453.98 420.897 455.042C418.815 456.104 418.674 456.436 417.441 457.121C415.705 458.085 410.107 457.389 410.801 464.671H432.164V464.671Z" fill="#FFCB77"/>
<path d="M432.714 466.815H411.177C409.994 466.815 409.035 465.856 409.035 464.673C409.035 463.49 409.994 462.531 411.177 462.531H432.714C433.896 462.531 434.855 463.49 434.855 464.673C434.855 465.856 433.896 466.815 432.714 466.815Z" fill="#FFB852"/>
<path opacity="0.1" d="M421.867 451.172C421.867 451.172 422.104 453.132 422.141 453.503C422.141 453.503 429.225 454.653 430.338 454.438C430.338 454.438 430.381 452.269 430.273 451.814C430.166 451.359 421.867 451.172 421.867 451.172Z" fill="black"/>
<path d="M396.074 451.105C396.074 451.105 396.217 454.961 396.074 458.708H403.215C403.215 458.708 403.714 452.676 403.215 450.248C402.715 447.821 396.195 450.084 396.074 451.105Z" fill="#FEF9EF"/>
<path d="M405.246 464.671C405.246 464.671 405.796 463.332 405.623 458.71C405.456 454.253 402.144 457.275 400.416 457.068C397.292 456.693 396.062 453.98 393.979 455.042C391.897 456.104 391.756 456.436 390.523 457.121C388.787 458.085 383.189 457.389 383.883 464.671H405.246V464.671Z" fill="#FFCB77"/>
<path d="M405.8 466.815H384.263C383.08 466.815 382.121 465.856 382.121 464.673C382.121 463.49 383.08 462.531 384.263 462.531H405.8C406.982 462.531 407.941 463.49 407.941 464.673C407.941 465.856 406.983 466.815 405.8 466.815Z" fill="#FFB852"/>
<path opacity="0.1" d="M396.169 451.875L396.074 453.955C396.074 453.955 401.033 455.362 403.42 454.796L403.437 452.811L396.169 451.875Z" fill="black"/>
<path d="M399.041 377.727C399.041 377.727 396.125 399.985 395.716 417.609C395.335 434.088 394.56 449.465 395.58 451.617C396.601 453.77 406.94 453.773 407.756 452.205C408.186 451.38 408.674 436.378 410.059 418.262C411.304 401.963 413.835 385.286 412.493 380.653C409.661 370.873 399.183 373.215 399.041 377.727Z" fill="#17C3B2"/>
<path d="M411.319 379.1C411.319 379.1 418.053 450.576 420.083 451.101C420.083 451.101 429.276 454.236 430.908 452.013C432.541 449.789 429.385 420.865 428.943 412.521C428.273 399.863 427.643 376.163 426.215 375.184C424.787 374.205 410.884 374.633 411.319 379.1Z" fill="#17C3B2"/>
<path d="M518.692 303.253C520.442 302.437 518.344 300.668 518.2 296.946C517.876 288.59 521.771 273.715 521.771 273.715C520.362 261.4 494.841 262.435 491.349 270.252C489.365 274.693 494.841 285.759 495.436 297.151C495.661 301.459 494.007 303.253 495.446 303.617C501.667 307.075 516.331 304.354 518.692 303.253Z" fill="#FE6D73"/>
<path opacity="0.1" d="M399.093 377.273C399.093 377.273 399.538 379.256 416.939 380.227C416.939 380.227 424.735 380.561 427.032 378.71C427.032 378.71 427.576 383.151 427.572 384.426C427.572 384.426 404.8 384.661 398.848 379.574L399.093 377.273Z" fill="black"/>
<path d="M534.17 448.647C535.121 433.749 536.435 407.21 532.238 394.337C525.573 373.894 535.267 340.059 519.847 308.104L503.879 307.312C503.879 307.312 506.485 343.428 514.465 381.457C521.11 413.122 524.471 430.568 526.055 449.651C529 449.467 531.347 447.646 534.17 448.647Z" fill="#FFA86E"/>
<path d="M528.819 444.35C527.772 444.203 526.705 444.066 525.637 443.923C525.933 447.556 526.182 451.343 526.402 455.425H534.485C534.485 455.425 533.905 453.331 533.971 451.055C534.024 449.215 534.298 447.126 534.485 444.218C532.563 444.297 530.72 444.618 528.819 444.35ZM504.644 379.316C505.779 363.272 509.086 307.453 509.086 307.453L495.326 310.638C487.363 330.621 487.822 372.534 490.326 393.777C492.661 413.587 493.728 445.397 493.859 445.96C493.989 446.524 494.484 447.898 495.761 448.097C497.846 448.423 500.333 445.587 502.13 446.726C503.606 436.594 505.51 423.872 506.194 414.392C507.249 399.768 503.509 395.36 504.644 379.316Z" fill="#FFA86E"/>
<path d="M495.448 303.614C493.405 308.714 488.231 336.963 488.231 345.753V382.432C488.231 389.011 486.578 423.421 486.578 426.329C486.578 429.237 512.723 431.973 512.284 428.048C510.478 411.912 508.556 371.773 508.182 354.398C508.175 354.089 508.633 354.061 508.659 354.369C510.308 374.668 513.062 424.69 515.376 430.923C516.033 432.69 540.528 433.018 540.573 430.946C540.687 425.698 533.001 394.463 533.001 387.051C533.001 379.639 533.467 350.164 531.502 337.006C530.525 330.467 520.229 306.112 518.694 303.25C516.065 304.068 503.424 307.022 495.448 303.614Z" fill="#227C9D"/>
<path d="M516.698 241.506C516.877 235.317 512.006 230.156 505.817 229.977C499.629 229.798 494.468 234.67 494.289 240.858C494.11 247.046 498.981 252.208 505.17 252.386C511.358 252.565 516.519 247.694 516.698 241.506Z" fill="#FFA86E"/>
<path d="M496.522 234.496C496.522 234.496 494.157 237.104 493.623 243.151C493.473 244.86 492.106 247.843 491.395 249.12C491.085 249.677 492.903 250.35 492.885 251.121C492.884 251.161 492.868 255.752 494.065 257.021C496.153 259.233 504.24 259.077 508.882 250.922C513.523 242.767 500.846 228.181 496.522 234.496Z" fill="#FFA86E"/>
<path d="M510.033 251.236C507.834 257.294 511.352 265.768 510.342 265.598L500.549 265.611C500.549 265.611 503.235 259.974 500.088 255.904C497.677 252.785 510.902 248.843 510.033 251.236ZM485.002 286.941C482.468 294.617 478.874 303.018 477.905 306.674C476.564 311.739 482.292 318.966 487.168 307.852C488.953 303.785 490.797 299.23 492.476 294.669C490.318 291.842 487.537 289.36 485.002 286.941Z" fill="#FFA86E"/>
<path d="M495.551 266.464C495.551 266.464 489.538 268.026 487.059 279.642C486.587 281.854 485.853 284.357 485 286.942C487.535 289.361 490.315 291.843 492.474 294.671C497.999 279.668 501.728 264.586 495.551 266.464ZM529.847 277.077C529.407 276.484 528.965 275.893 528.521 275.304C522.932 267.905 515.543 266.307 515.543 266.307C512.091 266.114 520.06 281.646 521.119 282.755C521.36 283.007 521.963 283.751 522.794 284.836C524.98 282.255 528.002 280.071 529.847 277.077Z" fill="#FE6D73"/>
<path d="M547.587 303.912C546.38 298.734 534.639 286.116 527.674 279.102C526.278 282.33 523.601 284.925 521.807 287.793C525.124 291.028 531.637 297.802 535.644 303.361C539.841 309.183 548.89 309.502 547.587 303.912ZM505.243 264.145C505.243 264.145 500.228 263.824 499.157 266.465C498.212 268.798 500.092 282.543 502.208 282.543C503.951 282.543 512.307 269.642 512.3 266.866C512.294 264.456 507.278 264.143 505.243 264.145Z" fill="#FFA86E"/>
<path d="M507.409 241.293C507.409 241.293 506.264 240.655 505.427 242.881C505.187 243.516 504.664 244.965 503.883 244.184C503.069 243.37 502.743 242.767 502.55 241.202C502.01 236.834 496.399 237.139 495.152 233.363C493.904 229.586 495.373 226.535 498.138 225.337C501.811 223.744 505.412 222.637 509.885 226.042C513.062 228.461 515.919 227.814 520.614 232.508C522.516 234.41 523.94 241.202 523.133 245.603C522.529 248.901 520.11 253.345 517.845 254.665C513.9 256.966 510.704 257.159 509.483 255.485C508.263 253.812 508.048 248.002 508.839 244.823C509.315 242.907 508.593 241.749 507.409 241.293Z" fill="#21123B"/>
<path d="M526.545 229.992C526.545 233.11 524.265 237.508 520.842 237.508C517.419 237.508 513.461 233.797 513.461 230.68C513.461 227.562 515.014 223.812 518.438 223.812C521.861 223.812 526.545 226.874 526.545 229.992Z" fill="#21123B"/>
<path opacity="0.1" d="M501.09 257.694C501.09 257.694 503.622 256.794 505.282 255.188C505.282 255.188 504.983 260.698 501.518 262.146C501.616 259.31 501.578 259.394 501.09 257.694ZM519.228 285.81C519.228 285.81 517.918 280.888 516.954 278.157C515.991 275.427 515.179 287.754 518.075 295.512C518.075 295.512 518.8 287.685 519.228 285.81Z" fill="black"/>
<path d="M485.793 310.494C485.793 310.494 469.041 336.03 469.041 339.125C469.041 340.969 460.887 339.943 463.495 336.28C466.492 332.069 475.976 312.354 477.904 306.679C479.831 301.003 487.212 305.659 485.793 310.494Z" fill="#FFA86E"/>
<path d="M464.668 334.886C464.668 334.886 461.35 338.512 459.374 342.625C457.814 345.874 459.137 348.029 460.955 348.789C463.689 349.932 466.416 349.946 467.513 347.05C469.488 341.835 470.446 332.283 464.668 334.886Z" fill="#FFA86E"/>
<path d="M458.685 345.29C458.685 345.29 458.433 349.434 459.084 350.862C459.735 352.29 460.521 352.504 461.163 353.433C461.806 354.361 464.804 356.955 465.732 355.372C466.66 353.789 467.597 349.377 467.379 347.371C467.16 345.365 458.73 343.218 458.685 345.29Z" fill="#FFA86E"/>
<path d="M470.872 344.946C470.821 344.738 469.159 340.448 468.016 340.234C466.874 340.02 465.161 341.305 465.018 343.803C464.875 346.302 465.875 348.943 465.732 350.871C465.589 352.799 466.218 354.441 467.938 353.155C469.658 351.871 471.871 349.086 470.872 344.946Z" fill="#FFA86E"/>
<path d="M466.702 352.795C466.702 352.795 442.604 369.542 436.654 364.497C432.963 361.368 437.49 359.461 446.099 356.777C457.03 353.369 459.829 350.374 462.019 348.614C464.21 346.854 469.155 350.049 466.702 352.795Z" fill="#FFA86E"/>
<path d="M401.09 341.798C401.09 341.798 402.255 334.876 412.927 334.836C423.587 334.797 425.22 337.527 425.97 340.204C426.719 342.881 426.648 351.114 426.541 359.003C426.449 365.749 429.711 376.959 427.574 378.528C422.543 382.223 401.776 379.072 399.454 377.603C396.106 375.486 399.385 365.754 399.627 358.967C399.868 352.181 400.076 344.96 401.09 341.798Z" fill="#FEF9EF"/>
<path opacity="0.1" d="M410.201 335.305C410.201 335.305 408.325 335.591 408.585 337.197C408.844 338.803 411.033 340.219 414.306 339.856C417.579 339.494 420.893 336.011 418.385 335.176C415.876 334.341 410.201 335.305 410.201 335.305ZM414.835 355.865C414.993 356.254 416.384 352.842 416.225 352.078C416.066 351.313 416.767 349.355 417.085 348.762C417.403 348.169 418.65 347.089 418.65 347.089C418.65 347.089 418.759 345.064 416.743 345.117C414.726 345.171 413.854 346.55 413.54 346.423C413.226 346.295 408.125 345.966 407.506 345.974C406.886 345.982 403.795 342.922 402.353 344.368C400.911 345.814 400.662 348.215 402.081 349.295C403.5 350.376 400.904 352.031 402.353 354.544C403.803 357.057 403.935 357.554 403.976 357.546C404.017 357.539 402.794 359.316 401.96 359.123C401.126 358.931 399.568 360.003 399.568 360.003L399.324 362.353L398.967 364.835L398.288 369.051L397.957 371.996C397.957 371.996 399.948 372.745 399.894 373.334C399.841 373.924 398.077 376.993 399.454 377.602C400.831 378.212 400.918 378.872 401.959 377.602C403 376.333 404.532 376.601 406.684 376.654C408.836 376.708 410.508 375.69 410.93 376.547C411.353 377.404 412.03 379.92 413.913 379.706C415.796 379.492 416.37 378.153 415.521 376.922C414.672 375.69 412.393 372.21 412.393 372.21C412.393 372.21 413.188 366.464 413.54 365.571C413.893 364.678 417.33 363.108 418.651 361.555C419.973 360.002 420.915 358.502 418.65 358.556C416.386 358.61 412.417 359.958 412.394 359.124C412.37 358.289 415.083 356.094 415.083 356.094L414.835 355.865Z" fill="black"/>
<path d="M414.617 365.694C414.617 370.692 413.18 375.316 407.764 374.743C402.352 374.17 400.91 370.692 400.91 365.694C400.91 360.696 403.978 357.633 407.764 357.633C413.32 357.633 414.617 360.696 414.617 365.694Z" fill="#227C9D"/>
<path d="M421.073 320.314C425.031 316.356 425.031 309.939 421.073 305.982C417.115 302.024 410.698 302.024 406.74 305.982C402.783 309.94 402.783 316.357 406.741 320.315C410.699 324.272 417.116 324.272 421.073 320.314Z" fill="#FFA86E"/>
<path d="M404.158 310.399C404.158 310.399 401.988 322.482 401.957 326.357C401.929 329.92 406.4 331.068 409.612 330.194C412.705 329.353 418.851 324.354 419.622 318.993C420.393 313.633 404.806 306.892 404.158 310.399Z" fill="#FFA86E"/>
<path d="M403.695 313.089C403.695 313.089 402.889 318.163 401.109 319.862C399.988 320.933 402.555 322.255 403.75 321.9C404.945 321.546 404.625 311.557 403.695 313.089Z" fill="#FFA86E"/>
<path d="M402.391 321.695C402.391 321.695 402.258 322.001 402.159 322.477C402.09 322.808 401.846 322.881 401.687 323.058C401.475 323.294 401.869 324.099 402.43 323.892C402.991 323.685 402.705 321.329 402.391 321.695Z" fill="#FFA86E"/>
<path d="M402.262 323.861C402.262 323.861 401.556 323.784 401.407 324.179C401.223 324.668 402 324.916 401.898 325.402C401.726 326.229 401.177 328.918 405.147 330.139C408.33 331.119 402.726 323.888 402.262 323.861ZM409.102 326.663C409.175 326.808 409.521 330.471 409.715 336.502C409.715 336.502 410.644 338.002 413.457 338.052C415.955 338.096 418.927 336.519 418.155 334.735C416.35 330.562 417.33 321.095 417.229 317.967C417.127 314.839 408.999 324.252 408.759 326.182L409.102 326.663Z" fill="#FFA86E"/>
<path d="M411.213 311.857C412.347 313.526 410.556 316.594 412.118 316.897C414.005 317.262 413.148 314.11 414.312 313.589C416.099 312.789 417.096 314.555 417.258 315.309C417.602 316.911 415.595 319.986 415.898 321.652C416.102 322.778 416.701 324.584 417.49 324.584C418.278 324.584 423.11 322.133 424.267 318.234C425.424 314.334 426.05 308.426 421.85 305.394C421.85 305.394 423.604 305.673 423.611 304.812C423.618 303.95 422.054 304.833 421.296 304.33C420.538 303.827 421.216 302.243 420.188 302.201C419.16 302.16 419.728 303.572 419.315 303.486C418.901 303.4 414.088 301.914 410.804 302.232C406.119 302.686 402.852 303.29 402.852 307.563C402.852 308.7 404.451 310.811 406.302 310.458C406.302 310.458 410.399 310.66 411.213 311.857Z" fill="#21123B"/>
<path opacity="0.1" d="M409.613 330.193C409.613 330.193 411.89 328.339 412.919 326.726C413.949 325.113 412.967 332.933 409.638 334.445C409.638 334.445 409.688 330.754 409.613 330.193Z" fill="black"/>
<path d="M387.711 360.909C387.711 360.909 388.497 359.103 392.129 359.125C395.76 359.147 392.811 364.023 403.212 365.156C409.293 365.819 408.417 369.151 403.679 370.349C398.942 371.547 382.348 367.214 387.711 360.909Z" fill="#FFA86E"/>
<path d="M416.918 353.444C416.458 357.036 413.01 359.554 409.216 359.069C405.423 358.583 402.72 355.278 403.18 351.686C403.639 348.094 407.012 346.022 410.805 346.508C414.599 346.993 417.377 349.852 416.918 353.444Z" fill="#227C9D"/>
<path d="M405.211 349.297C406.788 349.297 408.067 348.019 408.067 346.442C408.067 344.864 406.788 343.586 405.211 343.586C403.634 343.586 402.355 344.864 402.355 346.442C402.355 348.019 403.634 349.297 405.211 349.297Z" fill="#227C9D"/>
<path d="M416.965 351.461C418.542 351.461 419.821 350.183 419.821 348.606C419.821 347.028 418.542 345.75 416.965 345.75C415.388 345.75 414.109 347.028 414.109 348.606C414.109 350.183 415.388 351.461 416.965 351.461Z" fill="#227C9D"/>
<path d="M413.321 362.788C412.984 362.788 412.654 362.689 412.372 362.502C412.091 362.314 411.872 362.049 411.741 361.737C411.375 360.865 411.786 359.861 412.658 359.495C412.684 359.483 415.315 358.374 417.752 356.953C418.571 356.475 419.619 356.753 420.095 357.57C420.209 357.764 420.283 357.979 420.313 358.202C420.344 358.425 420.33 358.651 420.273 358.869C420.215 359.087 420.116 359.291 419.98 359.47C419.843 359.649 419.673 359.799 419.479 359.913C416.842 361.451 414.099 362.606 413.983 362.654C413.774 362.743 413.549 362.788 413.321 362.788ZM403.408 361.99C403.095 361.99 402.778 361.904 402.494 361.725C402.445 361.695 400.732 360.666 397.815 360.426C397.591 360.408 397.372 360.345 397.172 360.242C396.972 360.14 396.794 359.998 396.649 359.827C396.503 359.655 396.393 359.456 396.324 359.242C396.255 359.028 396.229 358.802 396.248 358.578C396.326 357.636 397.154 356.924 398.096 357.011C401.883 357.323 404.094 358.68 404.335 358.834C405.131 359.345 405.363 360.405 404.852 361.202C404.696 361.444 404.483 361.643 404.23 361.781C403.978 361.918 403.695 361.99 403.408 361.99ZM415.37 378.982C415.146 378.982 414.923 378.938 414.716 378.852C414.508 378.766 414.319 378.641 414.16 378.482C413.093 377.418 411.459 374.501 411.143 373.927C411.034 373.73 410.965 373.513 410.94 373.29C410.915 373.066 410.934 372.84 410.997 372.624C411.059 372.408 411.163 372.206 411.304 372.03C411.444 371.854 411.618 371.708 411.815 371.599C412.645 371.141 413.687 371.443 414.143 372.271C414.833 373.522 416.046 375.522 416.58 376.055C416.739 376.214 416.866 376.402 416.952 376.61C417.039 376.818 417.083 377.041 417.084 377.266C417.084 377.491 417.04 377.714 416.954 377.922C416.868 378.13 416.742 378.319 416.583 378.478C416.424 378.638 416.235 378.765 416.027 378.851C415.819 378.938 415.596 378.982 415.37 378.982ZM401.957 378.637C401.701 378.637 401.448 378.579 401.217 378.468C401.014 378.371 400.833 378.235 400.682 378.067C400.532 377.9 400.416 377.705 400.342 377.492C400.267 377.28 400.235 377.055 400.247 376.831C400.259 376.606 400.315 376.386 400.413 376.183L402.43 371.971C402.527 371.768 402.663 371.586 402.83 371.436C402.998 371.286 403.193 371.17 403.406 371.095C403.618 371.02 403.843 370.988 404.067 371C404.292 371.012 404.512 371.069 404.715 371.166C404.918 371.263 405.1 371.399 405.25 371.567C405.4 371.734 405.516 371.93 405.591 372.142C405.666 372.354 405.698 372.579 405.686 372.804C405.674 373.028 405.617 373.248 405.52 373.451L403.503 377.663C403.363 377.955 403.144 378.201 402.871 378.373C402.597 378.546 402.28 378.637 401.957 378.637Z" fill="#227C9D"/>
<path d="M400.7 366.724C400.7 366.724 401.655 365.323 404.778 364.659C407.902 363.996 409.682 363.468 410.621 364.277C411.56 365.087 412.162 369.715 410.192 370.822C407.786 372.173 398.353 372.155 400.7 366.724Z" fill="#FFA86E"/>
<path d="M402.188 365.863C402.188 365.863 402.98 363.578 405.122 362.293C407.264 361.008 407.604 359.824 408.192 360.457C409.334 361.686 405.479 364.486 404.845 365.439C404.219 366.379 401.902 366.721 401.958 365.863L402.188 365.863ZM409.459 371.128C409.459 371.128 412.445 370.467 413.21 370.003C413.974 369.539 414.653 369.396 414.76 369.075C414.867 368.754 415.001 368.254 414.006 368.29C413.011 368.326 411.868 368.861 411.012 369.182C410.155 369.504 408.871 370.931 409.459 371.128Z" fill="#FFA86E"/>
<path d="M409.656 369.705C409.656 369.705 412.173 369.315 412.876 368.823C413.578 368.331 415.082 367.752 415.082 367.359C415.082 366.967 414.654 366.211 413.511 366.75C412.369 367.288 411.405 367.738 410.834 367.692C410.263 367.645 409.238 369.603 409.656 369.705Z" fill="#FFA86E"/>
<path d="M409.987 367.925C409.987 367.925 412.761 367.495 413.535 366.953C414.31 366.411 415.967 365.772 415.967 365.339C415.967 364.906 415.495 364.074 414.236 364.667C412.977 365.261 411.915 365.757 411.285 365.706C410.656 365.654 409.526 367.813 409.987 367.925Z" fill="#FFA86E"/>
<path d="M409.573 365.757C409.573 365.757 412.274 365.55 413.059 365.086C413.845 364.622 415.487 364.132 415.519 363.715C415.551 363.299 415.159 362.463 413.904 362.94C412.648 363.417 410.343 363.997 409.741 363.901C409.139 363.804 409.138 365.615 409.573 365.757Z" fill="#FFA86E"/>
<path d="M421.238 336.091C421.238 336.091 424.048 336.031 427.517 338.514C430.232 340.457 433.82 344.787 433.707 346.151C433.594 347.515 426.741 351.753 426.235 351.467C425.73 351.181 424.841 347.566 424.048 345.756C423.255 343.945 419.578 335.232 421.238 336.091Z" fill="#FEF9EF"/>
<path d="M413.077 355.676C413.077 357.27 411.645 358.562 409.878 358.562C408.112 358.562 406.68 357.27 406.68 355.676C406.68 354.083 408.132 352.952 409.878 353.219C411.937 353.533 413.077 354.083 413.077 355.676Z" fill="#50A5BC"/>
<path d="M409.892 355.316C409.892 355.316 408.695 354.424 408.965 353.95C409.235 353.475 411.607 353.849 411.466 354.448C411.326 355.046 410.129 355.51 409.892 355.316Z" fill="#227C9D"/>
<path opacity="0.1" d="M399.975 350.513C399.975 350.513 400.175 344.929 400.831 342.767C401.488 340.606 397.695 345.909 397.509 347.711L395.695 344.955L394.195 346.926C394.195 346.926 398.28 354.735 399.018 355.04L399.83 353.485L399.975 350.513ZM426.605 351.479C426.605 351.479 431.994 348.581 433.291 346.878L434.644 349.3L428.915 355.675C428.915 355.675 426.707 352.161 426.605 351.479ZM422.595 346.444C422.595 346.444 425.184 352.28 426.605 351.479C426.605 351.479 426.457 357.606 426.539 359.5C426.621 361.394 424.199 357.613 423.638 354.286C423.077 350.958 421.203 346.106 422.595 346.444Z" fill="black"/>
<path d="M404.979 348.445C404.979 348.445 405.646 347.569 407.044 346.918C407.044 346.918 407.058 345.304 405.912 344.84C404.765 344.376 403.516 345.661 403.516 346.643C403.516 347.624 404.979 348.445 404.979 348.445ZM415.257 348.613C415.257 348.613 416.259 346.732 417.401 347.16C418.543 347.589 418.793 348.338 418.579 349.159C418.365 349.98 416.437 350.444 416.437 350.444C416.437 350.444 415.683 349.031 415.257 348.613Z" fill="#50A5BC"/>
<path d="M409.799 357.835C409.034 357.835 408.406 357.443 408.096 357.127C408.016 357.047 407.972 356.937 407.973 356.824C407.973 356.71 408.019 356.601 408.1 356.522C408.181 356.442 408.29 356.398 408.404 356.398C408.518 356.399 408.626 356.445 408.706 356.526C408.802 356.621 409.654 357.413 410.729 356.655C410.822 356.589 410.937 356.563 411.049 356.583C411.161 356.602 411.26 356.665 411.326 356.758C411.391 356.851 411.417 356.966 411.398 357.078C411.379 357.19 411.316 357.289 411.223 357.355C410.726 357.705 410.24 357.835 409.799 357.835Z" fill="#227C9D"/>
<path d="M408.886 350.978C408.886 351.553 408.53 351.847 408.091 351.847C407.653 351.847 407.297 351.553 407.297 350.978C407.297 350.404 407.653 349.938 408.091 349.938C408.53 349.938 408.886 350.403 408.886 350.978ZM413.385 352C413.138 352.486 412.755 352.578 412.436 352.416C412.116 352.254 411.981 351.898 412.228 351.413C412.475 350.927 412.933 350.665 413.253 350.827C413.572 350.989 413.631 351.514 413.385 352Z" fill="#50A5BC"/>
<path d="M514.625 462.12C515.669 461.618 519.24 459.52 520.412 458.348C522.629 456.131 526.244 452.565 526.157 451.249C526.071 449.94 534.169 455.417 534.169 455.417L531.612 460.439L522.995 463.587L514.625 462.12Z" fill="#FFA86E"/>
<path d="M509.083 465.583C509.083 464.868 508.823 463.507 510.353 462.213C512.25 460.608 516.533 459.735 516.533 459.735C519.355 460.1 520.463 462.731 523.888 460.559C525.251 459.694 529.215 457.808 529.958 457.322C534.077 454.628 533.844 451.478 534.516 451.851C534.516 451.851 535.684 453.233 535.684 456.297C535.684 458.977 534.95 460.55 534.95 460.55C534.95 462.705 530.945 461.506 530.945 461.506C527.474 462.575 521.408 467.568 520.463 467.568H515.229C513.056 467.568 510.958 467.546 510.448 467.546C509.938 467.546 509.083 466.297 509.083 465.583Z" fill="#FEF9EF"/>
<path d="M534.184 468.153H531.816C531.296 468.153 530.871 467.653 530.871 467.042V463C530.871 462.389 531.923 462.16 532.843 461.823C534.6 461.179 535.129 460.745 535.129 461.356V467.042C535.129 467.653 534.704 468.153 534.184 468.153Z" fill="#FFB852"/>
<path d="M522.378 468.155H509.254C508.544 468.155 507.969 467.526 507.969 466.752C507.969 465.978 508.544 465.349 509.254 465.349H521.986C525.342 463.922 531.2 459.878 534.485 459.694C535.194 459.655 535.433 459.406 535.433 460.18C535.433 460.955 535.195 468.092 534.485 468.092C532.268 468.092 522.774 468.155 522.774 468.155L522.378 468.155Z" fill="#EADFCC"/>
<path d="M496.919 443.045C495.881 442.846 494.822 442.657 493.762 442.461C493.878 446.105 493.941 449.899 493.96 453.987L502.034 454.384C502.034 454.384 501.558 452.264 501.735 449.995C501.879 448.159 502.255 446.086 502.584 443.191C500.661 443.176 498.804 443.405 496.919 443.045ZM481.93 460.877C482.974 460.375 486.545 458.278 487.717 457.105C489.934 454.888 494.013 451.322 493.926 450.006C493.84 448.697 501.474 454.174 501.474 454.174L498.917 459.197L490.299 462.344L481.93 460.877Z" fill="#FFA86E"/>
<path d="M476.388 464.34C476.388 463.626 476.127 462.265 477.658 460.97C479.555 459.366 483.837 458.493 483.837 458.493C486.659 458.858 487.767 461.489 491.192 459.316C492.556 458.452 496.52 456.566 497.262 456.08C501.382 453.386 501.149 450.235 501.821 450.608C501.821 450.608 502.988 451.991 502.988 455.055C502.988 457.735 502.255 459.308 502.255 459.308C502.255 461.463 498.25 460.264 498.25 460.264C494.779 461.333 488.713 466.326 487.768 466.326H482.534C480.36 466.326 478.263 466.304 477.753 466.304C477.242 466.304 476.388 465.055 476.388 464.34Z" fill="#FEF9EF"/>
<path d="M489.679 466.912H476.555C475.845 466.912 475.27 466.284 475.27 465.51C475.27 464.735 475.845 464.107 476.555 464.107H489.287C492.643 462.68 498.501 458.636 501.786 458.452C502.495 458.413 502.734 458.164 502.734 458.938C502.734 459.712 502.496 466.85 501.786 466.85C499.569 466.85 490.075 466.913 490.075 466.913L489.679 466.912Z" fill="#EADFCC"/>
<path d="M538.243 486.557C541.806 486.557 544.694 483.669 544.694 480.107C544.694 476.544 541.806 473.656 538.243 473.656C534.681 473.656 531.793 476.544 531.793 480.107C531.793 483.669 534.681 486.557 538.243 486.557Z" fill="#227C9D"/>
<path d="M586.419 486.557C589.982 486.557 592.87 483.669 592.87 480.107C592.87 476.544 589.982 473.656 586.419 473.656C582.857 473.656 579.969 476.544 579.969 480.107C579.969 483.669 582.857 486.557 586.419 486.557Z" fill="#227C9D"/>
<path d="M549.224 328.672C548.237 328.672 547.43 329.479 547.43 330.466V387.296C547.43 388.282 548.237 389.09 549.224 389.09C550.21 389.09 551.018 388.282 551.018 387.296V330.466C551.018 329.479 550.21 328.672 549.224 328.672ZM574.225 328.672C573.238 328.672 572.431 329.479 572.431 330.466V387.296C572.431 388.282 573.238 389.09 574.225 389.09C575.212 389.09 576.019 388.282 576.019 387.296V330.466C576.019 329.479 575.212 328.672 574.225 328.672Z" fill="#D3D3D3"/>
<path d="M590.104 478.134H533.347C528.382 478.134 524.32 474.071 524.32 469.107V389.253C524.32 384.289 528.382 380.227 533.347 380.227H590.104C595.068 380.227 599.13 384.289 599.13 389.253V469.107C599.13 474.071 595.068 478.134 590.104 478.134Z" fill="#FFCB77"/>
<path d="M581.521 332.911C581.521 332.911 569.263 332.273 561.725 332.273C552.089 332.273 541.928 332.911 541.928 332.911C540.558 332.911 539.438 332.265 539.438 330.696C539.438 329.127 540.558 327.844 541.928 327.844H581.521C582.891 327.844 584.012 329.127 584.012 330.696C584.012 332.265 582.891 332.911 581.521 332.911Z" fill="#227C9D"/>
<path opacity="0.1" d="M539.343 465.577C538.331 465.577 537.504 464.749 537.504 463.738V394.604C537.504 393.593 538.331 392.766 539.343 392.766C540.354 392.766 541.182 393.593 541.182 394.604V463.738C541.182 464.749 540.354 465.577 539.343 465.577ZM554.128 465.577C553.117 465.577 552.29 464.749 552.29 463.738V394.604C552.29 393.593 553.117 392.766 554.128 392.766C555.14 392.766 555.967 393.593 555.967 394.604V463.738C555.967 464.749 555.14 465.577 554.128 465.577ZM568.914 465.577C567.902 465.577 567.075 464.749 567.075 463.738V394.604C567.075 393.593 567.902 392.766 568.914 392.766C569.925 392.766 570.753 393.593 570.753 394.604V463.738C570.753 464.749 569.925 465.577 568.914 465.577ZM583.699 465.577C582.688 465.577 581.861 464.749 581.861 463.738V394.604C581.861 393.593 582.688 392.766 583.699 392.766C584.711 392.766 585.538 393.593 585.538 394.604V463.738C585.538 464.749 584.711 465.577 583.699 465.577Z" fill="black"/>
<path d="M536.293 299.429C536.293 299.429 536.228 303.909 538.194 306.014C540.161 308.119 549.721 313.048 552.208 321.231C552.208 321.231 561.454 322.1 558.004 318.967C555.005 316.245 552.921 309.813 548.519 303.164C543.499 295.583 538.366 292.857 536.293 299.429Z" fill="#FFA86E"/>
<path d="M552.17 321.08C552.17 321.08 556.572 320.442 556.328 318.049C556.179 316.591 562.336 323.003 561.852 325.456C561.369 327.909 557.195 331.585 555.701 329.282C554.239 327.028 551.13 322.39 552.17 321.08Z" fill="#FFA86E"/>
<path d="M559.085 326.973C559.085 326.973 561.37 330.157 561.42 331.551C561.469 332.945 561.432 334.604 561.328 335.646C561.225 336.688 559.819 336.068 559.871 334.944C559.923 333.82 559.724 331.915 559.442 331.373C559.16 330.831 558.25 329.579 557.939 329.144C557.627 328.708 558.61 326.641 559.085 326.973Z" fill="#FFA86E"/>
<path d="M560.597 325.942C560.597 325.942 562.882 329.126 562.931 330.52C562.98 331.913 562.944 333.573 562.84 334.615C562.736 335.657 561.331 335.036 561.383 333.913C561.435 332.789 561.236 330.884 560.954 330.342C560.671 329.8 559.762 328.548 559.451 328.113C559.139 327.677 560.122 325.61 560.597 325.942Z" fill="#FFA86E"/>
<path d="M561.451 323.612C561.451 323.612 563.752 326.973 563.867 327.805C563.983 328.638 564.294 330.305 564.487 331.247C564.68 332.188 563.74 332.413 563.242 331.852C562.743 331.291 562.457 329.389 562.127 328.772C561.798 328.156 560.923 326.709 560.657 326.326C560.39 325.942 561.223 323.607 561.337 323.609L561.451 323.612ZM558.191 329.049C558.191 329.049 559.028 330.87 559.228 332.249C559.429 333.628 559.571 335.086 559.309 335.714C559.127 336.154 558.501 335.928 558.322 335.139C558.144 334.349 557.424 332.446 557.026 331.629C556.494 330.538 555.874 329.657 555.699 329.279C555.6 329.065 557.564 328.303 558.191 329.049Z" fill="#FFA86E"/>
<path d="M485.75 284.59C484.505 288.419 483.608 290.351 483.164 291.546C482.72 292.741 485.092 294.672 487.129 295.721C489.172 296.772 492.476 299.135 493.857 299.614C495.921 300.329 495.596 293.466 495.596 293.466L492.962 284.829L485.75 284.59ZM519.226 285.809C519.808 287.465 519.961 297.749 520.817 298.606C521.674 299.462 529.899 294.664 531.098 293.466C532.296 292.267 536.505 287.971 536.795 286.43C537.085 284.89 525.178 271.664 525.178 271.664L518.499 277.138L519.226 285.809Z" fill="#FE6D73"/>
<path opacity="0.1" d="M493.881 278.102C493.881 278.102 492.583 279.025 492.294 285.787C492.066 291.113 490.609 294.836 494.977 296.016C495.489 296.154 495.708 298.095 495.123 301.182C496.804 297.667 496.825 282.919 494.841 280.647L493.881 278.102Z" fill="black"/>
<path d="M493.746 277.729C493.746 277.729 493.252 278.069 492.963 284.831C492.735 290.157 491.758 294.522 496.126 295.702C498.852 296.439 498.737 277.343 491.895 277.141L493.746 277.729Z" fill="#FE6D73"/>
<path opacity="0.1" d="M52.0859 334.617H292.191L292.077 342.855L52.0859 352.608V334.617Z" fill="black"/>
<path d="M169.304 440.804C192.586 440.804 211.46 421.93 211.46 398.648C211.46 375.366 192.586 356.492 169.304 356.492C146.022 356.492 127.148 375.366 127.148 398.648C127.148 421.93 146.022 440.804 169.304 440.804Z" fill="white"/>
<path d="M194.421 423.414C208.293 409.541 208.293 387.05 194.42 373.177C180.548 359.305 158.056 359.306 144.184 373.178C130.312 387.051 130.312 409.542 144.185 423.415C158.058 437.287 180.549 437.286 194.421 423.414Z" fill="#227C9D"/>
<path d="M160.642 383.324C161.114 383.021 160.72 382.629 160.533 382.39C160.338 382.14 160.16 381.447 159.716 381.726C159.374 381.941 159.555 382.563 159.689 382.833C159.932 383.32 160.2 383.29 160.66 383.366L160.642 383.324ZM161.38 381.075C161.15 381.412 160.489 381.1 160.256 380.853C159.874 380.451 160.116 380.157 160.063 379.702C160.852 379.02 162.311 380.633 161.476 381.183L161.38 381.075ZM162.618 382.24C162.636 382.301 162.64 382.356 162.637 382.422C162.274 382.614 161.721 382.629 161.493 382.169C161.275 381.73 162.002 381.536 162.194 381.088C162.378 380.658 162.653 380.224 163.18 380.661C163.708 381.1 163.081 381.684 162.811 382.108L162.618 382.24ZM161.469 377.207C161.098 377.31 160.851 377.592 161.093 377.962C161.303 378.285 161.786 378.214 162.131 378.329C163.012 378.622 163.322 379.695 164.433 379.282C165.189 379 165.265 377.779 164.467 377.489C163.829 377.257 162.893 377.24 162.201 377.26C161.987 377.266 161.773 377.275 161.564 377.316L161.469 377.207ZM181.26 372.17C181.308 372.233 181.336 372.344 181.358 372.42C180.632 372.683 180.654 374.031 181.642 373.896C182.106 373.832 183.52 373.487 183.752 373.041C184.239 372.104 182.833 371.626 182.313 371.287C181.669 370.868 181.667 369.622 180.956 369.454C179.588 369.132 179.723 370.499 179.721 371.371C179.297 371.757 178.458 372.048 178.308 372.623C178.142 373.265 178.793 374.106 179.451 374.117C180.26 374.131 180.336 373.224 180.397 372.623C180.424 372.354 180.392 371.967 180.667 371.824C180.99 371.657 181.325 371.959 181.313 372.296L181.26 372.17ZM202.023 384.451C201.311 382.768 200.471 381.141 199.511 379.586C198.795 380.143 197.936 380.318 196.958 379.688C195.934 379.028 195.607 379.663 194.769 380.266C193.931 380.869 192.589 381.337 192.404 381.018C192.219 380.699 190.741 380.728 190.181 380.915C189.621 381.102 189.468 379.478 188.455 378.962C187.442 378.447 186.518 379.434 185.153 380.904C183.788 382.375 182.558 382.052 181.329 382.523C180.099 382.993 180.143 384.564 180.176 385.345C180.208 386.126 179.099 386.794 178.049 387.834C176.999 388.875 177.969 389.408 179.191 390.183C180.413 390.958 178.971 391.071 178.356 392.672C177.742 394.273 179.975 395.912 182.019 396.985C184.062 398.058 187.072 396.835 188.089 396.305C189.107 395.775 188.932 394.657 189.234 394.43C189.535 394.203 190.32 394.766 191.099 395.082C191.879 395.398 192.72 394.098 193.848 394.416C194.976 394.734 193.899 397.474 194.921 398.681C195.944 399.888 196.661 400.479 197.085 401.542C197.509 402.604 196.702 404.336 196.735 405.117C196.767 405.899 198.148 406.109 198.72 406.612C199.293 407.115 199.126 408.775 199.376 409.365C199.625 409.955 200.411 410.169 201.031 411.149C201.29 411.559 201.541 412.165 201.752 412.728C205.608 404.059 206.01 393.879 202.023 384.451Z" fill="#17C3B2"/>
<path d="M188.002 375.783C188.377 375.932 188.685 376.181 189.065 376.325C189.347 376.432 189.903 376.733 190.051 377.013C190.302 377.488 189.815 377.42 189.814 377.809C189.813 378.587 191.288 379.015 191.801 378.537C192.034 378.321 192.234 377.708 192.276 377.402C192.338 376.951 192.149 376.454 191.897 376.072C191.603 375.626 191.289 375.37 190.762 375.261C190.323 375.17 189.604 375.344 189.249 375.007C188.608 374.397 190.448 373.994 190.92 374.198C192.184 374.746 192.413 376.402 193.314 377.272C194.444 378.363 194.546 375.129 195.148 374.853C195.669 375.268 195.88 376.113 196.36 376.609C196.729 376.99 197.233 377.051 197.749 377.012C194.296 372.39 189.824 368.771 184.794 366.336C184.196 366.649 183.811 367.135 184.015 367.881C184.227 368.66 184.678 369.178 185.466 369.315C185.905 369.392 187.89 369.265 187.827 369.986C186.658 370.557 184.226 370.488 184.457 372.364C184.504 372.742 184.756 373.129 184.443 373.476C184.201 373.745 183.639 373.818 183.326 373.884C182.924 373.968 182.509 373.96 182.289 374.371C182.038 374.84 182.201 375.336 182.385 375.775C182.591 376.264 182.887 376.667 183.067 377.17C182.564 377.276 182.001 377.073 181.462 377.119C180.929 377.164 180.377 377.288 179.905 377.565C178.673 378.289 178.833 379.239 179.75 380.029C180.46 380.641 181.286 381.498 182.277 381.246C183.091 381.04 183.597 380.26 184.226 379.775C185.034 379.152 185.119 378.501 185.461 377.553C185.59 377.194 185.742 376.741 186.067 376.499C186.357 376.283 186.817 376.279 187.099 376.114C187.492 375.887 187.521 375.591 188.002 375.783ZM172.109 409.578C172.954 408.625 173.597 406.867 172.206 405.963C170.816 405.058 170.014 404.652 169.266 405.267C168.517 405.881 166.219 406.704 165.631 405.314C165.043 403.923 164.669 403.038 163.707 402.849C162.745 402.66 161.943 402.849 161.943 402.849C161.943 402.849 160.607 401.179 159.645 401.288C158.682 401.397 158.041 402.562 157.4 401.939C156.758 401.317 156.17 399.926 154.995 400.721C153.819 401.517 154.353 402.185 153.498 402.546C152.643 402.908 151.575 403.956 150.933 403.035C150.291 402.114 150.291 400.624 148.314 400.417C146.336 400.21 149.543 397.364 147.298 397.419C145.053 397.475 144.466 401.449 143.984 396.734C143.502 392.02 147.03 391.72 148.152 393.481C149.275 395.242 150.532 396.797 151.079 395.373C151.627 393.949 150.023 393.137 150.771 392.522C151.52 391.908 152.481 390.309 152.641 388.602C152.801 386.895 153.763 386.19 154.405 385.62C155.046 385.051 154.993 384.031 155.099 382.793C155.206 381.556 155.446 380.783 156.221 380.977C156.996 381.171 157.665 381.708 157.932 380.999C158.199 380.29 157.723 379.463 158.669 379.763C159.615 380.064 159.722 380.614 160.149 379.689C160.577 378.763 160.016 378.329 159.481 378.257C158.947 378.186 158.118 378.163 158.118 377.716C158.118 377.269 158.412 376.325 158.011 376.42C157.61 376.515 156.969 376.936 156.809 377.301C156.648 377.667 156.207 377.667 156.027 377.241C155.847 376.814 155.303 375.33 154.546 375.725C153.789 376.12 152.987 376.459 153.094 377.308C153.201 378.157 153.602 378.807 153.282 379.24C152.961 379.674 152.32 379.498 152.106 380.036C151.892 380.573 151.785 381.662 151.384 381.906C150.983 382.149 150.395 380.014 149.647 379.883C148.899 379.753 147.75 380.164 147.616 379.252C147.482 378.34 148.845 376.646 149.165 376.361C149.486 376.076 150.688 374.748 150.929 375.615C151.17 376.482 151.865 376.486 152.212 375.818C152.559 375.149 152.265 374.007 152.799 373.93C153.334 373.853 153.245 373.444 153.449 373.133C153.654 372.823 155.391 372.163 155.605 372.669C155.819 373.174 154.082 374.282 154.643 374.566C155.205 374.85 157.316 375.671 157.396 375.116C157.476 374.56 157.342 374.244 158.037 374.397C158.732 374.551 159.774 374.035 158.652 372.424C157.529 370.812 155.445 370.352 155.07 370.362C154.696 370.371 152.87 370.473 152.567 371.048C152.265 371.623 152.639 372.21 152.185 372.923C151.731 373.637 150.822 374.319 150.875 373.552C150.929 372.784 151.196 371.032 150.474 371.113C149.753 371.195 147.909 370.857 148.497 371.95C149.085 373.042 150.127 373.421 149.325 373.909C148.524 374.397 146.814 375.419 146.68 374.805C146.546 374.191 147.321 374.086 147.695 373.481C148.069 372.876 148.058 371.508 147.355 371.784C146.653 372.059 146.92 373.138 146.225 372.985C145.69 372.867 145.503 372.602 145.019 372.36C144.312 373.023 143.632 373.715 142.981 374.434C144.003 374.769 145.654 375.279 144.997 375.442C144.609 375.539 143.398 375.43 142.211 375.315C137.609 380.749 134.74 387.464 133.98 394.527L133.977 394.605C134.526 394.535 135.184 394.699 135.593 395.664C136.395 397.56 136.929 399.123 138.212 399.474C139.495 399.826 140.243 400.105 139.388 398.977C138.533 397.849 136.715 395.935 137.463 395.618C138.212 395.302 139.388 396.295 140.083 397.938C140.778 399.581 140.885 401.324 141.901 402.236C142.916 403.148 144.146 403.373 144.466 402.641C144.787 401.91 145.417 401.314 145.93 402.23C146.444 403.146 146.925 402.496 147.673 402.775C148.422 403.055 149.223 404.951 151.201 404.86C153.179 404.769 154.016 404.067 153.945 404.792C153.874 405.518 152.217 406.368 152.378 408.535C152.538 410.703 153.18 411.028 152.913 413.078C152.646 415.128 153.715 418.849 154.41 419.598C155.105 420.347 157.618 422.116 158.74 421.791C159.862 421.465 162 420.561 162.321 422.512C162.642 424.462 162.219 424.641 163.927 426.154C165.636 427.667 164.139 428.598 164.781 429.519C165.422 430.44 167.079 430.484 168.202 431.947C169.324 433.409 171.088 434.005 171.516 433.228C171.943 432.451 168.95 431.332 169.485 430.808C170.019 430.284 170.903 428.718 169.606 428.372C168.308 428.027 167.293 427.115 167.88 427.016C168.468 426.916 166.704 425.725 167.613 425.191C168.521 424.658 169.484 424.549 170.285 422.869C171.086 421.189 172.048 419.292 171.407 418.073C170.765 416.854 169.233 416.31 171.442 415.673C173.651 415.037 174.453 414.847 173.544 412.996C172.634 411.145 171.264 410.532 172.109 409.578ZM169.55 369.831C169.55 369.831 167.096 370.894 166.563 371.832C166.029 372.77 166.169 372.896 165.349 373.459C164.528 374.021 163.957 374.709 165.024 375.71C166.091 376.711 166.709 376.773 166.275 377.461C165.841 378.149 165.413 378.462 165.784 378.9C166.154 379.338 166.623 379.726 166.451 379.907C166.279 380.088 165.789 380.214 165.784 380.714C165.779 381.214 165.72 381.089 166.563 381.34C167.405 381.59 166.632 381.527 166.018 381.965C165.403 382.403 165.538 383.529 165.784 384.217C166.029 384.905 166.154 385.906 166.123 386.594C166.091 387.282 165.908 387.548 166.563 388.04C167.217 388.533 168.24 388.72 168.104 389.346C167.968 389.971 168.739 390.202 169.229 389.805C169.719 389.409 169.256 388.986 169.55 388.04C169.844 387.094 169.782 386.781 169.969 385.968C170.157 385.155 170.608 385.218 171.071 384.905C171.533 384.592 171.359 384.029 171.759 383.341C172.159 382.653 172.597 381.965 173.347 381.465C174.098 380.964 174.615 380.464 174.137 380.276C173.66 380.089 173.469 379.463 173.877 379.088C174.285 378.713 173.972 378.775 173.597 377.9C173.222 377.024 173.782 377.024 173.877 376.586C173.972 376.149 172.847 375.773 172.847 375.21C172.847 374.647 173.284 375.586 173.41 375.085C173.535 374.585 172.784 373.959 172.784 373.209C172.784 372.458 172.784 371.958 172.909 371.207C173.034 370.457 172.847 369.8 172.034 370.41C171.22 371.02 170.47 370.738 170.783 370.41C171.095 370.081 170.869 369.167 169.55 369.831Z" fill="#17C3B2"/>
<path d="M292.191 336.337L52.0867 331.197C48.7746 331.197 46.0898 328.512 46.0898 325.2C46.0898 321.888 48.7746 319.203 52.0867 319.203H292.191C295.503 319.203 297.806 321.91 298.188 325.2C299.481 336.337 295.503 336.337 292.191 336.337Z" fill="white"/>
<path d="M292.192 435.964C291.01 435.964 290.051 435.005 290.051 433.822V336.329C290.051 335.146 291.01 334.188 292.192 334.188C293.375 334.188 294.334 335.146 294.334 336.329V433.822C294.334 435.005 293.375 435.964 292.192 435.964Z" fill="white"/>
<path d="M292.191 339.759H52.0867C48.7746 339.759 46.0898 337.075 46.0898 333.762C46.0898 330.45 48.7746 327.766 52.0867 327.766H292.191C295.503 327.766 298.188 330.45 298.188 333.762C298.188 337.075 295.503 339.759 292.191 339.759Z" fill="#FFCB77"/>
<path d="M47.4453 246.942C51.553 267.532 62.2343 285.75 77.2125 299.312V156.75C62.2341 170.312 51.553 188.53 47.4453 209.12V246.942Z" fill="#CDF0F8"/>
</g>
</g>
<defs>
<clipPath id="clip0_708_66832">
<rect width="631" height="631" fill="white"/>
</clipPath>
<clipPath id="clip1_708_66832">
<rect width="635" height="631" fill="white"/>
</clipPath>
</defs>
</svg>
